<?xml version="1.0" standalone="no"?>
<!DOCTYPE svg PUBLIC "-//W3C//DTD SVG 1.1//EN" "http://www.w3.org/Graphics/SVG/1.1/DTD/svg11.dtd" >
<svg xmlns="http://www.w3.org/2000/svg" xmlns:xlink="http://www.w3.org/1999/xlink" version="1.1">
<metadata>
Created by FontForge 20170731 at Sun Jul 24 16:30:55 1994
 By Aleksey,,,
Digital font data licensed from the WSI-FONT Collection.  Copyright (c) 1992 W.S.I.  All Rights Reserved.  Redistribution strictly prohibited.  
</metadata>
<defs>
<font id="OldEnglishGothic" horiz-adv-x="432" >
  <font-face 
    font-family="Old English Gothic"
    font-weight="5"
    font-stretch="normal"
    units-per-em="1000"
    panose-1="0 0 0 0 0 0 0 0 0 0"
    ascent="800"
    descent="-200"
    x-height="555"
    cap-height="761"
    bbox="-84 -260 1304 922"
    underline-thickness="40"
    underline-position="-100"
    unicode-range="U+0020-2215"
  />
<missing-glyph horiz-adv-x="800" 
d="M50 0v800h700v-800h-700zM700 50v700h-600v-700h600z" />
    <glyph glyph-name=".notdef" horiz-adv-x="800" 
d="M50 0v800h700v-800h-700zM700 50v700h-600v-700h600z" />
    <glyph glyph-name=".null" unicode="&#x141;" horiz-adv-x="0" 
 />
    <glyph glyph-name="nonmarkingreturn" horiz-adv-x="410" 
 />
    <glyph glyph-name="space" unicode=" " horiz-adv-x="410" 
 />
    <glyph glyph-name="exclam" unicode="!" horiz-adv-x="198" 
d="M174 626q-28 -93 -47 -207q-13 -80 -26 -211h-22q-17 167 -35 263q-13 68 -39 155l84 98zM174 76l-92 -85q-46 37 -84 89l93 87q36 -46 83 -91z" />
    <glyph glyph-name="quotedbl" unicode="&#x22;" horiz-adv-x="395" 
d="M347 723l-51 -258h-21l-65 258l75 82zM167 723l-51 -258h-21l-65 258l75 82z" />
    <glyph glyph-name="numbersign" unicode="#" horiz-adv-x="790" 
d="M761 547l-27 -76h-163l-54 -150h176l-28 -76h-173l-89 -245h-85l89 245h-153l-86 -245h-83l85 245h-168l28 76h169l52 150h-182l28 76h181l88 247h84l-89 -247h153l85 247h86l-89 -247h165zM488 471h-153l-53 -150h152z" />
    <glyph glyph-name="dollar" unicode="$" horiz-adv-x="484" 
d="M458 266q0 -85 -64 -160q-52 -61 -140 -109v-110h-56v122l-201 49l34 83l167 -40v227q-35 -22 -54.5 -34.5t-51.5 -30.5q-44 31 -69 84t-25 111q0 11 1 23q0 1 3 23q15 73 67.5 119.5t128.5 55.5v70h56v-75l150 -33l-37 -86l-113 28v-200q57 28 119 71q41 -36 63 -83
t22 -99v-6zM198 357v236l-100 22q-11 -16 -17.5 -42.5t-6.5 -53.5q0 -62 29.5 -113.5t75.5 -51.5zM367 239q0 50 -20 85.5t-57 35.5q-6 0 -17.5 -3t-18.5 -5v-267l61 -15q25 32 38.5 76.5t13.5 92.5z" />
    <glyph glyph-name="percent" unicode="%" horiz-adv-x="745" 
d="M724 207q0 -51 -26 -95q-31 -53 -121 -119q-74 23 -117 64q-51 49 -51 118l-2 8q0 69 49 130q39 48 108 93q65 -30 99 -60q47 -42 57 -99zM587 682l-397 -689h-61l397 689h61zM309 485q0 -66 -44 -124q-32 -43 -103 -95q-74 27 -115 67q-50 49 -50 119v10q0 71 46 130
q39 51 109 90q67 -31 99 -59q47 -41 57 -101zM663 168q0 16 -3 31t-9 31q-17 43 -52 72t-83 38q-21 -22 -33.5 -53t-12.5 -58q0 -59 41.5 -106.5t108.5 -60.5q22 22 32.5 49t10.5 57zM251 443q0 16 -2.5 27.5t-9.5 33.5q-17 42 -52.5 72.5t-82.5 40.5q-47 -53 -47 -113
q0 -58 41.5 -105.5t106.5 -59.5q46 48 46 104z" />
    <glyph glyph-name="ampersand" unicode="&#x26;" horiz-adv-x="696" 
d="M662 299q-41 -67 -97 -67q-34 0 -72 33l-65 -51q24 -45 35 -60q23 -32 49 -45.5t52 -13.5q50 0 87 37l9 -4q-15 -59 -51.5 -92.5t-95.5 -33.5l-4 -2q-60 0 -105 45q-28 28 -67 98l-194 -158l-141 216l206 163l-93 158q-11 16 -11 31q0 18 14 34.5t35 29.5l208 107
q38 -27 59.5 -58t21.5 -70l-4 -36q-10 -41 -50 -81q-24 -24 -76 -64l103 -181l129 108q21 -19 45 -29.5t49 -10.5l20 3zM364 541q0 24 -7 45.5t-24 39.5q-10 9 -23.5 14t-25.5 5q-23 0 -40 -17t-17 -41q0 -9 2.5 -17t8.5 -18l61 -115q24 18 36 30q20 20 26 42zM323 167
l-101 175l-110 -85l111 -172z" />
    <glyph glyph-name="quotesingle" unicode="'" horiz-adv-x="395" 
d="M167 723l-51 -258h-21l-65 258l75 82z" />
    <glyph glyph-name="parenleft" unicode="(" horiz-adv-x="291" 
d="M265 10l-106 -150q-81 89 -119 196.5t-38 228.5q0 158 61.5 311t170.5 271l13 -12q-76 -106 -117 -222.5t-41 -235.5q0 -214 133 -400l25 28z" />
    <glyph glyph-name="parenright" unicode=")" horiz-adv-x="291" 
d="M260 442q0 -156 -61 -309.5t-168 -272.5l-16 16q75 104 115 219.5t40 234.5q0 105 -31.5 206.5t-96.5 193.5l-27 -28l-17 15l106 150q78 -88 117 -198t39 -227z" />
    <glyph glyph-name="asterisk" unicode="*" horiz-adv-x="363" 
d="M337 526l-74 -37q-16 23 -34 38.5t-46 32.5q11 -59 40 -102l-56 -59l-52 68q19 20 30 43t20 54q-27 -14 -47 -30q-24 -20 -39 -45l-77 33l44 73q17 -6 25 -8q23 -6 46 -6l33 3q-22 22 -43.5 35t-49.5 19l7 87l79 -19l-2 -10q0 -25 6.5 -48t19.5 -49q12 22 17 44t5 48v12
l83 17l6 -82q-56 -16 -98 -58h15q32 0 51.5 2.5t43.5 12.5z" />
    <glyph glyph-name="plus" unicode="+" horiz-adv-x="672" 
d="M650 296l-50 -31l-50 30l-187 1l2 -201l25 -50l-27 -43h-78l-20 43l20 50v201l-195 -1l-40 -30l-53 31v76l48 38l45 -40l195 2v183l-25 50l25 60h78l27 -60l-25 -50l-2 -183l187 -2l50 35l50 -33v-76z" />
    <glyph glyph-name="comma" unicode="," horiz-adv-x="198" 
d="M175 86q-22 -56 -57.5 -97.5t-90.5 -77.5l-22 24q50 45 50 72q0 14 -12.5 33.5t-37.5 44.5l87 82q20 -24 40 -43q16 -15 43 -38z" />
    <glyph glyph-name="hyphen" unicode="-" horiz-adv-x="315" 
d="M285 348l-43 -130h-206l-12 -29h-21l43 122h207l13 37h19z" />
    <glyph glyph-name="period" unicode="." horiz-adv-x="198" 
d="M170 76l-93 -85q-24 21 -43 41q-22 24 -39 48l91 87q42 -53 84 -91z" />
    <glyph glyph-name="slash" unicode="/" horiz-adv-x="363" 
d="M344 724l-286 -824h-58l282 824h62z" />
    <glyph glyph-name="zero" unicode="0" horiz-adv-x="460" 
d="M443 348q0 -107 -59 -196q-47 -71 -152 -159q-52 18 -90 41q-42 26 -76 68t-53.5 92t-19.5 105v21q0 111 63 207q56 85 158 155q96 -49 147 -103q63 -67 77 -160q3 -17 4 -43t1 -28zM367 296q0 50 -12 92q-18 73 -77.5 127.5t-136.5 76.5q-34 -49 -53 -99.5t-19 -98.5
q0 -51 22 -114q51 -149 209 -189q33 44 50 96.5t17 108.5z" />
    <glyph glyph-name="one" unicode="1" horiz-adv-x="315" 
d="M296 103l-121 -110l-115 89q12 10 18 17q13 15 13 35v380q0 25 -10.5 44t-32.5 37l-41 -35l-16 17l122 105q49 -40 63 -61q20 -31 20 -84v-420l43 -35l41 37z" />
    <glyph glyph-name="two" unicode="2" horiz-adv-x="484" 
d="M458 89l-80 -96q-47 20 -94 30t-89 10q-89 0 -192 -40q13 68 51 123q27 39 85 90q94 84 102 91q41 41 66.5 88.5t25.5 91.5q0 34 -13.5 65.5t-44.5 59.5l-186 -148l-70 72l192 156l238 -147v-25q0 -116 -66 -186q-33 -35 -149 -106q-108 -66 -158 -133q54 20 108.5 33
t104.5 13q47 0 88 -9.5t81 -32.5z" />
    <glyph glyph-name="three" unicode="3" horiz-adv-x="484" 
d="M452 190q0 -94 -94 -147q-73 -41 -181 -50l-175 148l75 73l208 -178q26 28 40 65.5t14 75.5q0 32 -9.5 60t-29.5 52q-25 29 -62.5 41t-81.5 12h-27v28q85 7 132 45q54 44 54 125v4q0 61 -40 61q-6 0 -15.5 -4t-18.5 -9l-131 -97l-64 67l156 117l223 -111q1 -10 1.5 -20
t0.5 -19q0 -60 -35 -102q-31 -37 -98 -70q66 -22 106 -56q52 -45 52 -105v-6z" />
    <glyph glyph-name="four" unicode="4" horiz-adv-x="484" 
d="M461 217h-117v-107l41 -30l33 27l12 -18l-103 -96l-120 77q24 29 31 42.5t7 31.5l-1 73h-222l-29 94l270 371q38 -21 59.5 -49.5t21.5 -68.5v-265h94zM244 299v238q0 8 -4 15q-2 3 -20 23l-196 -264l3 -12h217z" />
    <glyph glyph-name="five" unicode="5" horiz-adv-x="460" 
d="M430 257l-3 -40q-13 -93 -80 -151q-60 -52 -157 -73l-192 117l66 74l220 -132q71 72 71 153q0 59 -43 109t-120 76l-152 -101l58 378h294l-31 -98h-249l-32 -220l188 128q74 -27 118 -85t44 -135z" />
    <glyph glyph-name="six" unicode="6" horiz-adv-x="460" 
d="M442 273q0 -59 -34 -115q-27 -44 -82 -92q-35 -30 -96 -73q-109 32 -169 105q-63 77 -63 191v4q0 113 71 220q61 92 166 169l175 -90l-68 -87l-159 87q-48 -55 -68 -117.5t-20 -137.5l2 -26l214 144q61 -27 94 -70q37 -48 37 -112zM357 205q0 59 -39.5 108.5t-82.5 49.5
q-18 0 -30 -9l-104 -70q21 -84 66 -131.5t127 -67.5q33 24 48 55t15 65z" />
    <glyph glyph-name="seven" unicode="7" horiz-adv-x="484" 
d="M443 641q-122 -151 -176 -278q-62 -146 -62 -320l-131 -50q0 153 84 311q68 129 196 265h-235q-57 -32 -100 -81l-16 12q20 35 43 82q16 32 40 85h357v-26z" />
    <glyph glyph-name="eight" unicode="8" horiz-adv-x="460" 
d="M431 247q0 -80 -67 -152q-49 -53 -135 -102h-11q-73 0 -124 24q-60 28 -87 91q-3 10 -6 24t-3 23q0 47 36 95q28 38 76 73q-44 15 -68 43t-24 71l1 21q8 59 59 124q36 45 99 100q110 -10 166 -46q48 -31 63 -83l1 -24q0 -39 -31 -75q-25 -29 -68 -51q55 -20 87 -57
q36 -41 36 -99zM342 486v14q-12 52 -96 73q-52 13 -129 13q-16 -22 -25 -41q-13 -26 -13 -47t16 -40q21 -26 88 -37l102 -14q30 23 39 34q18 21 18 45zM385 186q0 19 -11.5 40t-31.5 34q-38 25 -101 40q-19 4 -107 20q-33 -28 -48.5 -56t-15.5 -53q0 -51 55 -85.5t122 -34.5
q55 0 95 24q23 13 33 30.5t10 40.5z" />
    <glyph glyph-name="nine" unicode="9" horiz-adv-x="460" 
d="M437 378q0 -113 -72 -220q-61 -90 -166 -167l-174 89l67 85l162 -83q47 52 66 114t19 139v28l-214 -149q-60 29 -95 75.5t-35 107.5q0 23 5 48q16 72 80 137q40 41 127 100q107 -34 168.5 -110.5t61.5 -188.5v-5zM335 388q-23 88 -65.5 133t-128.5 66q-33 -23 -50 -55.5
t-17 -66.5q0 -58 40 -107t84 -49q7 0 16 2t18 9z" />
    <glyph glyph-name="colon" unicode=":" horiz-adv-x="198" 
d="M170 407l-93 -86q-46 42 -82 91l91 88q18 -23 39.5 -46.5t44.5 -46.5zM170 76l-93 -85q-24 21 -43 41q-22 24 -39 48l91 87q42 -53 84 -91z" />
    <glyph glyph-name="semicolon" unicode=";" horiz-adv-x="198" 
d="M175 407l-90 -84q-23 20 -45 43t-38 46l95 88q34 -44 78 -93zM167 86q-19 -57 -54.5 -98.5t-90.5 -76.5l-22 24q46 43 46 72t-46 78l88 82q17 -22 38 -43q28 -25 41 -38z" />
    <glyph glyph-name="less" unicode="&#x3c;" horiz-adv-x="331" 
d="M316 401l-197 -171l130 -166h-52l-181 166l252 171h48z" />
    <glyph glyph-name="equal" unicode="=" horiz-adv-x="465" 
d="M431 348l-57 -60h-295l57 60h295zM391 223l-57 -60h-295l58 60h294z" />
    <glyph glyph-name="greater" unicode="&#x3e;" horiz-adv-x="305" 
d="M299 230l-245 -166h-53l201 171l-135 166h59z" />
    <glyph glyph-name="question" unicode="?" horiz-adv-x="315" 
d="M289 565q0 -21 -2 -28q-11 -44 -83 -145q-58 -82 -58 -185h-27l-4 44q0 47 14 94q6 27 22 71q29 83 29 125q0 36 -21.5 59.5t-58.5 23.5q-21 0 -49 -11t-53 -21l64 126q21 2 30 3t25 1q25 0 44 -3.5t40 -12.5q39 -18 63.5 -57.5t24.5 -83.5zM213 76l-91 -85
q-28 23 -45 41q-20 22 -37 48l91 87q19 -25 40 -48q11 -11 42 -43z" />
    <glyph glyph-name="at" unicode="@" horiz-adv-x="982" 
d="M950 421q0 -89 -35 -172t-102 -134q-26 -20 -104 -44q-69 -21 -105 -25q-66 40 -66 124l-138 -124h-9q-38 38 -54 66q-22 38 -22 83q0 57 30 111q25 45 73 91l-51 144l17 -1q29 0 57 11t49 33l148 -53l31 24l6 -7q-12 -20 -22 -43t-15 -44v-319q1 0 14.5 -20.5
t42.5 -20.5q14 0 31.5 4t41.5 14q77 31 119 124q36 81 36 178v7q0 130 -81.5 218t-214.5 111q-33 4 -79 4q-108 0 -203 -42t-161 -123q-50 -60 -80 -146.5t-30 -172.5q0 -64 18.5 -125t54.5 -109q64 -81 158 -122q87 -38 192 -38q92 0 185.5 29t167.5 81l18 -23
q-83 -57 -181 -88.5t-201 -31.5q-98 0 -184 30q-94 33 -160 95t-100.5 145t-34.5 170q0 95 38 185.5t107 159.5q75 75 175.5 115.5t209.5 40.5q51 0 101 -9q140 -25 226 -123t86 -238zM538 344v121l-146 57l43 -122zM538 202v119l-104 57q-15 -27 -22.5 -53t-7.5 -53
q0 -77 57 -140z" />
    <glyph glyph-name="A" unicode="A" horiz-adv-x="706" 
d="M674 93l-134 -112q-32 20 -54 55.5t-31 76.5l-168 -129l-166 88q-8 5 -23 11t-25 6q-3 0 -9.5 -3t-12.5 -6q-7 -12 -7 -22q0 -7 6 -22t6 -23q0 -12 -10 -20t-21 -8q-13 0 -20 10.5t-7 23.5q0 16 9.5 40.5t30.5 55.5l104 152q-60 55 -84 88q-39 54 -39 112l-3 26
q0 49 21 96t60.5 86t92.5 60t108 21q58 0 119.5 -20.5t112.5 -56.5q31 36 60 55.5t71 28.5l6 -3q-47 -44 -66 -75q-26 -42 -26 -95l10 -392q0 -37 6 -64.5t25 -47.5l38 29zM453 327l-4 253l-22 32h-7l-195 -285h228zM394 635q-31 14 -62.5 20t-62.5 6q-90 0 -150.5 -56.5
t-60.5 -135.5q0 -46 25 -93.5t74 -86.5l152 223q-8 13 -21 20t-29 7q-2 0 -8 -2t-10 -2q-26 -4 -41.5 -17t-29.5 -40q0 63 40 97q34 29 91 29q33 0 65 -8zM455 154l-2 90h-286l-41 -60l233 -106z" />
    <glyph glyph-name="B" unicode="B" horiz-adv-x="782" 
d="M756 112q-85 -18 -155 -50q-44 -20 -142 -78q-96 35 -138 43.5t-90 8.5t-90 -13q-59 -18 -64 -54l-4 -8q0 -9 4 -23q9 -31 9 -40q0 -19 -22 -19q-15 0 -28 10t-13 25q0 18 11 41.5t21 37.5q32 36 64 73q38 47 45 88v10q-5 7 -8 10q-12 11 -28 11q-12 0 -26.5 -6.5
t-31.5 -21.5q-1 4 -1 13q0 37 47 73q15 12 48 29q6 8 6 19q0 21 -15.5 44.5t-33 31t-40.5 7.5q-18 0 -39.5 -6t-39.5 -14q9 49 50 77t92 28q0 70 27 118t86 96q-43 -15 -64 -15q-13 0 -71 19q-30 10 -49 10q-21 0 -39 -12.5t-34 -36.5q7 57 45.5 97.5t95.5 40.5q28 0 82 -16
t81 -16h7q24 0 55 8.5t60 17.5l3 -7q-87 -48 -118 -95q-36 -53 -36 -148v-181q0 -87 -18 -141.5t-73 -124.5q71 45 110.5 104.5t39.5 136.5v195q0 105 39.5 157.5t143.5 87.5q26 8 52 14t48 6q32 0 54 -14q30 -18 44.5 -47t14.5 -64q0 -40 -18 -75q-17 -28 -51 -64
q-29 -30 -58 -59q73 -7 108 -31q45 -31 45 -96v-212zM625 336v8q0 34 -9 50t-46 32q-17 -9 -33 -20l-30 -24v-54q27 -6 50 -6q32 0 68 14zM615 575q0 47 -20 87q-25 50 -68 50q-40 0 -63.5 -30.5t-23.5 -77.5v-225q0 -107 -30.5 -154t-127.5 -100q43 6 62.5 8t43.5 2
q46 0 96 -12v387h23v-91q50 27 79 69t29 87zM625 220v84q-27 -4 -39.5 -4.5t-19.5 -0.5q-26 0 -39 2t-20 3v-84q30 6 58 6t60 -6zM625 121v74q-30 10 -61 10q-13 0 -27 -2t-30 -5v-85l61 -20q13 8 27.5 14.5t29.5 13.5z" />
    <glyph glyph-name="C" unicode="C" horiz-adv-x="681" 
d="M657 192q-45 -93 -125 -148q-86 -59 -192 -59q-126 0 -224 83q-101 86 -117 217q0 137 55 243q62 120 177 158l3 -4q-66 -53 -103.5 -127t-37.5 -153q0 -101 68 -193q9 17 11.5 36t2.5 47v276l227 192q105 -67 231 -67l-104 -113q-11 4 -60.5 24t-96.5 34v-545
q10 0 23.5 -1.5t30.5 -2.5q73 0 141 45q51 39 81 61zM343 97v560l-47 -41v-215q0 -69 -31 -118q-23 -37 -87 -91q31 -35 73 -59t92 -36z" />
    <glyph glyph-name="D" unicode="D" horiz-adv-x="855" 
d="M823 244q0 -34 -1.5 -71.5t-2.5 -60.5q-49 -21 -98 -55q-42 -29 -89 -70q-139 53 -259 53q-162 0 -334 -98l-8 16q108 68 216 137q122 94 122 206v189q0 41 4.5 65.5t20.5 53.5q-53 -22 -74.5 -49.5t-21.5 -81.5v-150q0 -79 -39 -142q-32 -52 -97 -104q-16 -13 -123 -87
l-8 8q66 61 91.5 102.5t25.5 77.5q0 50 -20 71q-16 17 -45 14q-23 0 -47.5 -9t-37.5 -25q5 55 46 84q36 25 91 25l32 -3q8 92 49 155t121 111q-24 0 -74 -2.5t-61 -2.5q-32 0 -57.5 3t-44.5 12q-40 21 -59 59t-19 86l1 24h8q9 -30 63 -54q18 -8 54 -18q45 0 206 12
q80 6 127 6h39t42 -3q105 -9 167 -88q52 -66 76 -184q18 -90 18 -212zM679 433q-11 96 -58.5 137.5t-145.5 41.5v-179q19 -22 44.5 -33t54.5 -11q61 0 105 44zM691 254q0 51 -1.5 78.5t-7.5 65.5q-47 -30 -104 -30q-54 0 -103 29v-144q32 15 60.5 22.5t58.5 7.5q51 0 97 -29
zM448 157v455h-25q-17 -26 -22.5 -54t-5.5 -63v-191q0 -45 -11 -81t-38 -66h102zM691 218q-47 44 -108 44q-59 0 -108 -44v-64q49 0 108 -12q26 -5 107 -27z" />
    <glyph glyph-name="E" unicode="E" horiz-adv-x="681" 
d="M657 192q-45 -93 -125 -148q-86 -59 -192 -59q-124 0 -222 82q-103 86 -118 212q-3 27 -3 53q0 123 63 220.5t171 133.5l3 -4q-66 -52 -104 -127t-38 -154q0 -50 17.5 -99.5t51.5 -92.5q9 17 11.5 36t2.5 47v276l223 192q50 -35 121 -49q54 -11 131 -11l-162 -173h125
q-30 -61 -59 -121h-181l4 -313l37 -3q62 0 124 31q44 22 110 74zM504 581l-132 54v-198zM343 97v560l-47 -41v-215q0 -69 -31 -118q-23 -37 -87 -91q33 -35 76 -59t89 -36z" />
    <glyph glyph-name="F" unicode="F" horiz-adv-x="955" 
d="M927 753q-16 -70 -62.5 -108.5t-106.5 -38.5q-54 0 -112 29v-110h165l-35 -108h-130v-188q0 -136 -52.5 -204.5t-184.5 -108.5l-153 -46q-9 -3 -21.5 -4t-25.5 -1q-27 0 -61 10q-74 22 -81 22q-19 0 -32 -12.5t-22 -45.5h-10q0 61 35 114.5t85 53.5q36 0 85 -29
q69 -41 84 -46h6q7 0 13.5 4.5t12.5 12.5q23 23 29 56.5t6 80.5v331q-27 8 -47 11t-41 3q-67 0 -123 -69h-9q0 84 70 127q59 36 150 36v110q100 0 166 32q37 18 139 96q70 -34 137 -34q58 0 121 25zM535 206v420q-14 -7 -29.5 -11t-34.5 -6v-373q0 -105 -20 -164
q-25 -74 -97 -133q99 33 140 95.5t41 171.5z" />
    <glyph glyph-name="G" unicode="G" horiz-adv-x="756" 
d="M721 334q0 -152 -135 -254q-126 -95 -285 -95q-116 0 -207.5 73t-91.5 176q0 147 58 241q42 68 149 148l192 133q61 -35 131 -47q53 -9 150 -9l4 -7l-168 -131q91 -27 143 -81q60 -62 60 -147zM495 580l-187 75v-228zM619 315q-9 61 -52 92.5t-102 31.5q-26 0 -43.5 -2.5
t-37.5 -10.5v-114q33 -15 61.5 -23t56.5 -8q56 0 117 34zM626 270v19q-38 -17 -66 -24t-59 -7q-25 0 -54 6t-63 17v-97q28 8 61 14t58 6q28 0 54 -5t52 -18q8 18 12.5 42.5t4.5 46.5zM600 157q-52 23 -101 23q-27 0 -53.5 -5.5t-61.5 -17.5v-119q66 0 122 31.5t94 87.5z
M188 208v346q-34 -34 -53.5 -87.5t-19.5 -110.5q0 -51 15.5 -100t42.5 -85q9 5 12 14.5t3 22.5zM357 39v376q-26 -9 -49 -23v-68q0 -73 -33 -105q-47 -41 -89 -77q34 -39 78.5 -66.5t92.5 -36.5z" />
    <glyph glyph-name="H" unicode="H" horiz-adv-x="807" 
d="M769 319q0 -101 -15 -147q-22 -67 -93 -122q-43 -31 -71 -54q-55 -44 -60 -69l-1 -5q0 -8 9 -13t21 -5l5 3q36 0 36 -22q0 -12 -16.5 -25.5t-35.5 -13.5q-11 0 -23.5 5.5t-23.5 18.5q-14 19 -14 38q0 18 12 42q9 19 23 37l76 112q32 56 45 129q-23 9 -46 13t-47 4
q-66 0 -133 -34q-57 -29 -119 -86h25q18 0 45 -3q62 -7 78 -7q33 0 59.5 10t46.5 35l16 -18l-106 -164q-48 30 -106.5 44t-122.5 14q-44 0 -100 -22.5t-56 -51.5q0 -8 4 -22q9 -32 9 -40q0 -10 -8 -19t-19 -9h-5q-15 1 -23.5 13t-8.5 26q0 13 6.5 32t18.5 42q15 20 48 57
q56 62 68 105q6 14 6 22q0 13 -9 18.5t-23 5.5q-16 0 -35 -9t-33 -27q-1 5 -1 16q0 42 24.5 68.5t70.5 36.5q1 10 1 14q0 41 -25 60t-62 19q-40 0 -76 -17q8 49 49.5 77t92.5 28q0 75 28 121q16 26 84 93q-43 -15 -63 -15q-14 0 -73 19q-31 10 -46 10q-24 0 -42 -12.5
t-32 -36.5h-5q10 56 47 95q41 43 97 43q40 0 122 -13q44 -7 68 -7q44 0 97 14l1 -7q-85 -49 -117 -95q-37 -54 -37 -148v-181q0 -88 -17.5 -142t-70.5 -124q77 53 109 100q39 57 39 141v204q0 114 70 177q60 54 179 78l2 -2q-86 -52 -112.5 -90.5t-26.5 -87.5l1 -3v-121
l188 156q72 -58 102 -130.5t30 -175.5zM643 407q-11 46 -28 73q-20 32 -56 50l-110 -93v-30q58 -14 102 -14q23 0 44 3t48 11zM643 254v128q-48 -13 -95 -13q-46 0 -99 12v-124q51 15 94 15t100 -18z" />
    <glyph glyph-name="I" unicode="I" horiz-adv-x="580" 
d="M543 748q-43 -14 -57.5 -34.5t-14.5 -62.5q0 -34 28 -241q14 -103 14 -160q0 -104 -49 -180q-55 -85 -147 -85q-44 0 -99 18q-118 39 -128 39q-27 0 -48.5 -14.5t-38.5 -46.5l-6 3q0 56 30 99.5t82 50.5q36 1 73.5 2t50.5 30q7 30 7 61q0 61 -20 103q-24 51 -70 51
q-18 0 -39 -4.5t-53 -17.5q11 50 52 76.5t95 26.5q8 82 27.5 128.5t75.5 109.5q-28 -13 -61.5 -20t-54.5 -7q-8 4 -13 5q-17 5 -35 5q-24 0 -50 -11.5t-49 -38.5l-10 2q11 55 49 90t94 35q26 0 68 -8t62 -8q21 0 50 6q28 8 43 11l3 -7q-51 -41 -73.5 -99.5t-22.5 -125.5
q0 -52 14 -150t14 -135q0 -63 -24 -93q-30 -38 -100 -38q37 -41 56 -54q36 -24 89 -24q28 0 40 27.5t12 67.5q0 22 -4 63t-4 51q-2 15 -17 118.5t-15 160.5q0 106 34 164q43 73 140 73v-12z" />
    <glyph glyph-name="J" unicode="J" horiz-adv-x="706" 
d="M674 738q-61 -56 -82.5 -110.5t-21.5 -130.5l4 -194q0 -114 -26 -187q-33 -93 -121 -170q-39 -36 -86.5 -58.5t-99.5 -22.5q-30 0 -73.5 13t-89.5 26q-21 0 -40 -18q-14 -13 -28 -40l-8 3q14 80 55 115q33 29 84 29q23 0 91 -12q34 -6 49 -6l28 3q22 8 32 26.5t10 44.5
q0 55 -39 102q-34 41 -79.5 65.5t-98.5 34.5q17 17 37.5 24t42.5 7q21 0 43 -5.5t41 -14.5q0 66 -42.5 100.5t-111.5 34.5q16 20 40 29.5t52 9.5q16 0 36 -3.5t37 -9.5q11 101 90 169q22 19 99 72q-50 -20 -81 -29t-60 -9q-4 0 -109 30q-52 15 -98 15q-17 0 -30.5 -4.5
t-19.5 -15.5q-2 -1 -6 -12.5t-4 -19.5q0 -10 10 -10q6 0 22 3t25 3q15 0 25.5 -14.5t10.5 -32.5t-11.5 -29.5t-36.5 -11.5t-46 21q-24 24 -24 58q0 23 13 52q25 55 69 77.5t103 22.5q48 0 139 -20t123 -20q36 0 72.5 9.5t86.5 28.5zM590 695q-90 -47 -133 -103
q-51 -66 -51 -159v-276q0 -90 -18 -135q-26 -64 -101 -99q106 20 145 90q32 57 32 176v213q0 98 27.5 160.5t98.5 132.5z" />
    <glyph glyph-name="K" unicode="K" horiz-adv-x="807" 
d="M782 113l-118 -129q-19 21 -39 48q-23 32 -57 89l-120 -140q-58 25 -102.5 36t-88.5 11q-46 0 -96 -12q-39 -9 -114 -35l-14 22l78 82q46 56 46 103q0 30 -17.5 46.5t-42.5 16.5q-17 0 -37 -10q5 36 23 52t45 16q34 0 74 -20q0 53 -28 94q-32 47 -84 47q-26 0 -55 -13
q11 36 34.5 54.5t55.5 18.5q34 0 67 -15q0 80 35 137q29 48 100 101q-52 -32 -78.5 -43.5t-52.5 -11.5q-9 0 -37 4t-38 4q-32 0 -59.5 -13.5t-54.5 -51.5l-7 3q10 62 47.5 102.5t99.5 53.5q14 2 22 2q19 0 71 -15q24 -7 38 -7q27 0 94 23v-12q-29 -54 -45 -104.5t-16 -103.5
v-231q0 -75 -58 -140q-18 -20 -118 -104l9 -7q145 78 152 84q66 54 66 159v209q0 70 18 131t53 119h26q-36 -66 -53.5 -128t-17.5 -134q53 37 95 72.5t91 84.5l122 -136q-58 -41 -120 -90q-16 -13 -69 -57q82 -44 132 -125q46 -75 93 -150l31 30zM568 459l-78 87l-102 -75
v-148h14q48 42 81 69q38 32 85 67zM554 150q-38 68 -63 94q-42 43 -100 43q-8 -52 -25.5 -88t-54.5 -69h13q51 0 94.5 -8.5t87.5 -28.5z" />
    <glyph glyph-name="L" unicode="L" horiz-adv-x="731" 
d="M691 93l-129 -124q-53 42 -108.5 61t-117.5 19q-58 0 -120.5 -17t-126.5 -48l-9 16q62 47 83 71q43 49 43 105q0 40 -26.5 64.5t-73.5 29.5q24 24 58 24q17 0 42 -5v5q0 47 -22.5 67.5t-74.5 20.5q-20 0 -31 -1q10 25 33.5 38t51.5 13q18 0 36 -5q0 87 19 147t71 117
q-28 -17 -55.5 -25t-47.5 -8q-25 0 -60 8.5t-45 8.5q-20 0 -35.5 -10t-32.5 -39l-13 9q13 57 45 89q36 36 93 36h9q34 0 67 -9q73 -20 77 -20q18 0 37.5 5t53.5 20l6 -8q-54 -45 -74 -96q-16 -41 -16 -105q0 -40 1 -68t2 -53q0 -136 -15.5 -196.5t-79.5 -159.5
q93 74 129 146q30 60 30 146q0 37 -2 73q-7 124 -7 130q0 102 49.5 146.5t156.5 44.5l2 -13q-60 -8 -86 -42q-22 -28 -22 -76q0 -32 2 -58q7 -92 7 -108q0 -118 -36 -191q-39 -79 -140 -153q46 14 84 22q50 11 86 11q37 0 81 -19q46 -22 92 -43q7 0 38 26z" />
    <glyph glyph-name="M" unicode="M" horiz-adv-x="1056" 
d="M1014 89l-104 -104q-45 17 -66 55t-21 90v486l-82 61l-22 -10v-241h63l-63 -87v-198l25 23l19 -22l-176 -157q-31 33 -58 58q-31 29 -62 53v10q15 13 20 19q10 12 10 26v188h-125v-214q0 -69 -48 -128.5t-109 -59.5q-18 0 -45 4q-62 9 -76 9q-29 0 -50 -11t-34 -39h-10
q0 50 18 80q15 25 39 36.5t78 19.5q83 13 99 60q11 29 11 64q0 59 -32 100t-84 41q-37 0 -74 -22q11 53 41.5 77.5t86.5 31.5q0 92 30.5 155.5t107.5 106.5l208 113q42 -27 61 -52q23 -29 32 -76l189 125l120 -83l44 35l17 -12q-27 -37 -32 -47q-14 -26 -14 -53v-450
q0 -22 6.5 -41t18.5 -19q11 0 25 16zM693 426v222l-71 -51v-171h71zM497 426v199q0 24 -21 36t-49 12q-26 -26 -40.5 -55.5t-14.5 -63.5v-189l43 61h82zM693 121v218h-71v-192q0 -25 7 -37.5t28 -20.5zM366 640q-38 -29 -51.5 -59t-13.5 -80v-309q0 -49 -13 -81
q-16 -38 -54 -60q11 -2 24.5 -4.5t17.5 -2.5q70 0 70 87v431q0 22 4.5 39t15.5 39z" />
    <glyph glyph-name="N" unicode="N" horiz-adv-x="904" 
d="M871 123l-78 -139q-26 6 -56 11t-52 5q-46 0 -80 -18t-62 -63l-11 11q15 71 61 175q66 150 75 174q-46 40 -91 40q-43 0 -112 -40v-125q0 -92 -61.5 -164.5t-150.5 -72.5q-34 0 -76 11q-96 25 -110 25q-29 0 -74 -20l-2 7q20 28 56 51q7 4 72 40q12 6 25 8.5t31 2.5
q14 0 42 -3t42 -3q32 0 46 12q18 16 18 57q0 36 -35 60q-39 27 -107 27h-33q38 50 77 50q25 0 61 -13q-17 55 -66 83q-42 24 -97 24q14 25 33.5 35.5t43.5 10.5q22 0 44.5 -8.5t41.5 -23.5q-14 64 -55 94.5t-108 30.5q21 27 42 38.5t41 11.5t42 -10q10 -5 38 -22v95l281 172
q132 -42 196 -115q58 -67 58 -158q0 -82 -51 -186q-45 -93 -125 -193q39 13 78 13q20 0 44.5 -3.5t60.5 -9.5l19 30zM690 493q-26 69 -88.5 108t-136.5 39v-150q32 -22 60 -33.5t59 -11.5q58 0 106 48zM696 465q-52 -42 -114 -42q-57 0 -117 37v-152q27 14 57 23t56 9
q53 0 101 -32q8 26 14 59t6 60q0 20 -3 38zM437 176v462l-42 -23v-413q0 -69 -14 -108q-19 -52 -70 -81l9 -3q60 0 90 49q26 42 26 108z" />
    <glyph glyph-name="O" unicode="O" horiz-adv-x="782" 
d="M743 518q12 -39 12 -77q0 -85 -54 -175q-45 -74 -121 -141q-67 -61 -145 -98q-88 -42 -166 -42q-111 0 -193.5 100t-82.5 219q0 55 9 107t26 107q99 58 186 116q80 53 181 127q120 -15 211 -72q104 -66 137 -171zM597 513q-38 61 -98 91q-46 23 -130 39v-131
q27 -23 57.5 -35.5t62.5 -12.5q62 0 108 49zM640 384q0 30 -6.5 56.5t-21.5 49.5q-30 -25 -62.5 -37.5t-65.5 -12.5q-58 0 -115 37v-163q32 21 64.5 33t61.5 12q65 0 130 -58q15 41 15 83zM612 269q-25 32 -56 48.5t-63 16.5t-63 -13.5t-61 -41.5v-193q80 7 145 59
q60 48 98 124zM337 86v560h-43v-287q0 -45 -21 -83q-15 -27 -95 -110q40 -38 73 -56q43 -24 86 -24zM189 292v298q-44 -45 -67.5 -102t-23.5 -120q0 -50 15.5 -95t47.5 -84q15 24 21.5 48.5t6.5 54.5z" />
    <glyph glyph-name="P" unicode="P" horiz-adv-x="782" 
d="M738 125l-170 -141q-38 17 -76.5 30.5t-77.5 20.5v-196h-203v208q-53 0 -104 -13q-38 -10 -98 -34l-9 13q35 54 91 90q49 32 118 54q-12 83 -61 142q-42 51 -126 98v4l189 129v57q0 40 -26 73t-64 33q-19 0 -35 -3t-42 -11v19q69 60 149 60q54 0 90 -32q41 -36 48 -104
l53 33v105h30v-87l121 87q53 -37 88 -66q46 -39 75 -78q25 -33 34 -79q6 -32 6 -89v-323zM609 469q0 73 -52.5 129.5t-126.5 56.5l-16 -12v-172q34 -37 98 -37q60 0 97 35zM609 292v144q-21 -13 -48 -20t-51 -7q-55 0 -96 27v-144q21 13 43.5 19t47.5 6q51 0 104 -25z
M609 106v153q-50 36 -106 36q-49 0 -89 -28v-101q57 -13 97 -25q54 -16 98 -35zM384 -126v752l-48 -30v-722h48zM211 372v129l-86 -58z" />
    <glyph glyph-name="Q" unicode="Q" horiz-adv-x="829" 
d="M801 51l-114 -102l-153 129q-59 -41 -126.5 -65t-135.5 -24q-12 0 -26 1.5t-22 2.5q-93 22 -152 110q-48 72 -70 184q-6 33 -6 59q0 50 22 110l24 62q180 106 365 243q133 -17 226 -81q108 -75 132 -196q0 -94 -36 -177t-101 -147l109 -90q10 -10 20 -10q11 0 26 12z
M610 513q-38 60 -100 91q-47 23 -131 39v-131q30 -23 61 -36t62 -13q59 0 108 50zM654 384q0 27 -7.5 55.5t-21.5 50.5q-59 -50 -127 -50q-30 0 -58.5 9t-60.5 28v-163q33 22 65 33.5t62 11.5q66 0 131 -58q17 42 17 83zM625 269q-26 32 -56.5 48.5t-62.5 16.5
q-64 0 -127 -55v-193q80 7 146 59q60 47 100 124zM350 86v560h-42v-287q0 -57 -37 -107q-11 -15 -82 -86q42 -38 74 -56q43 -24 87 -24zM202 292v298q-44 -44 -70 -104.5t-26 -119.5q0 -98 65 -177q16 24 23.5 49t7.5 54z" />
    <glyph glyph-name="R" unicode="R" horiz-adv-x="829" 
d="M802 89l-106 -105h-14q-47 37 -86 135q-50 126 -65 149q-47 71 -127 71v-197q50 -17 105 -49l25 25l17 -18l-121 -123l-74 50q-45 23 -131 23q-52 0 -114 -15q-47 -11 -111 -35l-3 9q79 107 211 148q-7 82 -61 144q-47 54 -131 96v5l189 138v48q0 45 -11.5 66t-33.5 30
t-46 9q-20 0 -37.5 -3.5t-40.5 -10.5v19q33 29 72 44.5t78 15.5q53 0 88 -31q40 -35 47 -102l204 138q34 -42 82 -108q54 -75 80 -110l-160 -115q87 -51 128 -122q18 -32 47 -120q22 -69 59 -104l25 22zM568 493l-129 180l-35 -23v-278zM379 150v482l-51 -35v-440
q13 0 29 -3t22 -4zM205 381v125l-84 -58z" />
    <glyph glyph-name="S" unicode="S" horiz-adv-x="829" 
d="M805 311q0 -78 -48 -145q-40 -56 -113 -106q-45 -31 -132 -76l-142 60q-72 -31 -119 -46q-72 -23 -127 -23q-113 0 -129 98q-1 5 -1 15q0 51 54 79.5t122 28.5q21 0 45.5 -2t46.5 -5l27 55q-101 0 -139 9q-75 18 -103 76q-9 18 -13 34t-4 31q0 39 28 70q23 25 65 45
q0 46 24 88q19 34 59 73l108 96q49 -19 110 -40t110 -36l25 47l26 -18l-113 -197q101 -9 202 -17q131 -39 131 -194zM478 588q-36 26 -55 37q-56 34 -107 34h-12q-8 -2 -29.5 -3.5t-48.5 -21t-27 -54.5q13 -37 56 -54q36 -14 87 -14q24 0 47 2.5t50 5.5zM719 301
q0 67 -67 98q-51 24 -134 24q-30 0 -47.5 -1.5t-53.5 -6.5l-33 -65q19 2 44 4t48 2q79 0 125 -19q60 -25 60 -80q0 -41 -51 -82q-25 -20 -90 -57l96 -37q51 43 77 97t26 123zM378 409q-17 0 -34 -0.5t-34 -0.5q-65 0 -104 13q-53 18 -75 64q-26 -26 -26 -55q0 -14 5.5 -25.5
t20.5 -25.5q21 -19 57 -27.5t76 -8.5q19 0 41 2t38 4zM558 222q0 20 -19 28.5t-52 8.5q-29 0 -89 -7.5t-75 -7.5l-31 -60q50 -8 95 -21q11 -3 94 -29q36 28 45 36q32 30 32 52zM324 56q-49 22 -104 37t-102 15q-30 0 -56 -13.5t-26 -38.5t25.5 -41.5t61.5 -16.5q46 0 114 22
q52 17 87 36z" />
    <glyph glyph-name="T" unicode="T" horiz-adv-x="756" 
d="M721 761q0 -85 -59 -127q-52 -37 -137 -37l-13 3v-507q66 20 113 59q42 35 83 98l10 -6q-20 -71 -48 -119q-35 -58 -89 -94q-34 -21 -82 -32.5t-96 -11.5q-75 0 -141 22q-99 37 -155 116t-56 178q0 95 58 187q52 82 144 153q-29 3 -53 3q-60 0 -103 -22.5t-87 -83.5h-8
q17 115 98 169q70 47 182 47q49 0 157 -27t162 -27q36 0 64 14t47 47zM485 89v512l-71 14v-234q0 -80 -32 -134q-24 -41 -95 -105q42 -33 89 -45q31 -8 76 -8h33zM296 254v381l-15 3q-57 -61 -84 -119q-30 -66 -30 -146q0 -122 92 -212q22 21 29.5 41t7.5 52z" />
    <glyph glyph-name="U" unicode="U" horiz-adv-x="855" 
d="M831 89l-105 -105h-24q-34 30 -51 62.5t-26 81.5q-64 -66 -126 -100q-78 -43 -159 -43q-116 0 -205.5 92.5t-89.5 208.5q0 123 87 231q76 95 204 160q-34 -9 -51.5 -10.5t-59.5 -1.5q-18 0 -35 1l-34 2q-46 0 -75 -19q-40 -26 -76 -97l-14 -4q0 87 36 144q43 68 126 68
q30 0 93.5 -14.5t90.5 -14.5q25 0 47 6.5t42 22.5h29v-279q45 -24 86 -24q40 0 84 24v135l-50 35l-40 -45l-17 17l117 137l105 -70l56 47l12 -9q-23 -28 -35.5 -56t-12.5 -60v-461q0 -30 3 -45.5t16 -32.5l39 35zM625 333v120q-43 -20 -85 -20t-85 20v-120q44 19 83 19
q40 0 87 -19zM625 164v144q-41 20 -84 20q-41 0 -86 -20v-208q48 5 86 19.5t84 44.5zM426 97v622q-44 -44 -44 -110v-237q0 -72 -33 -127t-96 -95q41 -31 79 -42t94 -11zM372 673q-94 -53 -148 -136.5t-54 -182.5q0 -106 64 -188q23 23 32.5 53.5t9.5 67.5l-1 190
q0 59 26 107q22 41 71 89z" />
    <glyph glyph-name="V" unicode="V" horiz-adv-x="706" 
d="M638 365q-21 -68 -62 -139q-37 -64 -86 -126q-29 -37 -99 -116q-36 18 -65.5 27.5t-57.5 9.5q-26 0 -49.5 -6.5t-52.5 -21.5l-19 14q17 48 36 103t19 96q0 70 -50 98q-32 18 -77 18h-9q-1 0 -3 -1q0 37 20 56t54 19q39 0 78 -24q0 106 -22 183q-32 112 -101 112
q-32 0 -52 -13q-11 -7 -30 -29l-5 1q12 61 40 95q35 42 93 42q61 0 105 -46q37 -38 58 -105l279 158q77 -125 77 -274q0 -70 -19 -131zM531 481q-7 63 -20 106t-43 92l-157 -96q5 -28 7 -41q9 -48 9 -71q54 -14 93 -14q49 0 111 24zM532 453q-58 -19 -106 -19q-40 0 -99 14
q0 -36 -5 -72.5t-13 -72.5q38 9 72 9q58 0 124 -26q14 38 20.5 79.5t6.5 87.5zM498 262q-59 25 -109 25q-37 0 -90 -14q-13 -44 -32 -85q-7 -15 -71 -133l10 -4q48 33 80 47q41 18 81 18q34 0 72 -13q16 29 32 77q13 41 27 82z" />
    <glyph glyph-name="W" unicode="W" horiz-adv-x="1255" 
d="M1232 89l-115 -105q-47 26 -68 58t-28 86q-91 -89 -153 -118q-55 -26 -115 -26q-74 0 -129.5 40.5t-88.5 109.5q-46 -65 -103 -104q-65 -45 -131 -45q-106 0 -182 92q-72 87 -72 198q0 127 72 233q66 98 185 165q-19 -7 -36.5 -10t-30.5 -3q-11 0 -32.5 3.5t-33.5 3.5
q-13 0 -20 -1.5t-20 -7.5q-48 -21 -68 -37q-29 -22 -47 -63l-18 6q0 77 34 131q40 63 109 63q30 0 96.5 -22.5t95.5 -22.5q47 0 90 47h28v-664q37 23 74 65q-11 30 -18 63t-7 62q0 114 75 220q70 99 183 164q-24 -3 -55 -6t-63 -5q-70 -7 -84 -11q-48 -15 -66 -61l-15 5
q9 67 43 113q41 55 101 55q32 0 69 -13q83 -29 101 -29q21 0 38.5 9.5t26.5 32.5h28v-289q33 -11 66 -11q34 0 69 11v145l-37 41l-34 -34l-22 17l113 120l85 -81l72 47l12 -8q-24 -27 -37 -53q-17 -33 -17 -64v-451q0 -25 4.5 -41t18.5 -31l41 34zM1017 327v116
q-13 -2 -38.5 -5t-39.5 -3q-27 0 -57 8v-116q33 10 68 10q18 0 32.5 -2t34.5 -8zM856 89v620q-26 -19 -35.5 -41t-9.5 -59v-239q0 -81 -29.5 -132.5t-99.5 -90.5q39 -32 80 -45t94 -13zM1017 161v140q-35 12 -67 12q-33 0 -68 -12v-205q39 9 68 23.5t67 41.5zM786 664
q-80 -48 -130 -137t-50 -183q0 -96 58 -178q24 28 31.5 53t7.5 67v179q0 56 23 107q19 42 60 92zM423 89v620q-32 -22 -45 -46.5t-13 -62.5v-230q0 -85 -28 -133t-101 -90q38 -33 78 -47t90 -14zM340 664q-84 -41 -138 -129.5t-54 -184.5q0 -52 17 -98.5t52 -85.5
q22 21 29 50.5t7 69.5v179q0 56 25 108q19 39 62 91z" />
    <glyph glyph-name="X" unicode="X" horiz-adv-x="681" 
d="M650 674l-47 -103l-131 55l-80 -175v-14h204l-37 -83h-133l108 -224q16 -31 46 -50l35 33l18 -23l-108 -106q-37 12 -65 49q-20 25 -43 72l-97 207l-147 -328q-47 34 -74 50q-38 23 -80 38l48 112l138 -54l89 203v21h-198l39 83h124l-86 172q-16 33 -37 47.5t-46 14.5
q-19 0 -38.5 -8t-42.5 -23l-7 8q29 54 59 79q39 33 92 33q48 0 79 -29q24 -23 47 -73l93 -181l128 284q65 -46 150 -87z" />
    <glyph glyph-name="Y" unicode="Y" horiz-adv-x="731" 
d="M712 448q0 -146 -77 -234q-84 -96 -240 -96h-197q-70 0 -114 -23q-58 -30 -58 -93q0 -48 34 -73q30 -22 80 -22h16q7 1 10 1q93 36 155.5 59t105.5 23q58 0 88.5 -28t30.5 -68q0 -22 -11.5 -38.5t-30.5 -16.5q-20 0 -32.5 15.5t-12.5 39.5q0 9 1 13q3 7 6.5 15.5
t3.5 14.5q0 14 -21 14q-4 0 -16 -2q-71 -36 -146.5 -74t-123.5 -38q-72 0 -117.5 49.5t-45.5 113.5q0 58 40 99q47 48 130 48q1 6 1 11v12q0 61 -33.5 110.5t-92.5 76.5v9q33 -3 51 -5q53 -7 74 -17v12q0 62 -30 100q-26 33 -92 62v7q24 6 48 6q18 0 36.5 -3.5t37.5 -9.5
q1 7 2 21.5t1 23.5q0 83 -33 123q-29 35 -80 35h-9v11q47 24 96 24q52 0 91.5 -28t55.5 -82q57 40 97 59q58 27 110 27q98 0 158 -94q53 -83 53 -190zM567 518q-12 69 -43 108q-35 44 -88 44q-15 0 -32.5 -4t-34.5 -11v-143q48 -36 95 -36q26 0 51.5 11t51.5 31zM575 414v47
q-3 22 -4 32q-55 -40 -112 -40q-47 0 -90 28v-144q41 28 90 28q27 0 54.5 -8.5t56.5 -25.5q3 17 4 37t1 46zM564 304q-52 40 -104 40q-47 0 -91 -33v-169q69 0 123 45t72 117zM340 142v498l-49 -24v-474h49z" />
    <glyph glyph-name="Z" unicode="Z" horiz-adv-x="656" 
d="M625 125q-58 -69 -72 -86t-44 -55q-55 25 -122.5 38t-130.5 13q-127 0 -240 -42l-9 9q43 53 77 101q27 39 66 103q17 28 65 111h-106l18 38h107q8 11 18 26q15 23 17 26h-116l16 39h127q57 69 118 133t128 123q-75 -41 -143.5 -62.5t-135.5 -21.5q-75 0 -150 28l-35 -37
l-20 16q27 31 69 82q21 26 43 53q119 -50 220 -50q92 0 213 41l7 -10q-44 -62 -88 -144q-17 -33 -74 -151h114l-18 -39h-120q-7 -13 -16 -26.5l-17 -25.5h128l-16 -38h-138q-52 -68 -127 -138q-21 -20 -142 -123q90 40 147 58q81 25 151 25q46 0 86.5 -9.5t86.5 -32.5l37 44
z" />
    <glyph glyph-name="bracketleft" unicode="[" horiz-adv-x="246" 
d="M220 -131h-220v990h220v-25h-108v-942h108v-23z" />
    <glyph glyph-name="backslash" unicode="\" horiz-adv-x="363" 
d="M333 -100h-58l-284 824h61z" />
    <glyph glyph-name="bracketright" unicode="]" horiz-adv-x="246" 
d="M217 -131h-219v24h106v942h-106v23h219v-989z" />
    <glyph glyph-name="asciicircum" unicode="^" horiz-adv-x="696" 
d="M622 493l-90 30l-199 194l-183 -199l-92 -25l224 304h106z" />
    <glyph glyph-name="underscore" unicode="_" horiz-adv-x="576" 
d="M553 -260h-555v80h555v-80z" />
    <glyph glyph-name="grave" unicode="`" horiz-adv-x="174" 
d="M153 505l-43 -19q-60 33 -105 70q-49 40 -89 92l80 27q72 -96 157 -170z" />
    <glyph glyph-name="a" unicode="a" 
d="M402 81l-99 -90q-69 41 -69 130l-145 -130h-9q-38 38 -56 69q-24 41 -24 87q0 60 31 116q26 47 77 96l-53 151l17 -1q66 0 112 46l155 -55l33 25l6 -7q-15 -25 -24.5 -46.5t-14.5 -45.5v-308q4 -12 10.5 -21t16.5 -13l19 13zM234 303v127l-153 60l45 -128zM234 154v125
l-109 60q-14 -27 -23 -56t-9 -55q0 -81 60 -147z" />
    <glyph glyph-name="b" unicode="b" 
d="M397 78q-44 -13 -83 -34.5t-78 -52.5q-52 40 -97 64q-56 30 -113 41q20 17 27.5 37.5t7.5 50.5v287h-56v63h56l2 76q0 31 -9 56t-34 52l5 8q21 -8 38.5 -17.5t33.5 -22.5h12q23 27 48 41q29 17 61 17l4 -3q-52 -43 -52 -106v-208l151 127q76 -51 76 -145v-331zM291 90
v317q-2 13 -9 24q-10 16 -29 29l-83 -68v-241z" />
    <glyph glyph-name="c" unicode="c" horiz-adv-x="331" 
d="M294 103q-69 -56 -137 -112q-45 34 -73 50q-40 22 -84 29q18 16 25.5 38t7.5 49v303q41 20 73.5 42t63.5 53l116 -78l-52 -79l-95 64v-332l92 -49l47 40z" />
    <glyph glyph-name="d" unicode="d" 
d="M392 520q-10 -20 -10 -49v-391q-49 -16 -88.5 -37.5t-76.5 -55.5q-41 35 -93.5 60t-107.5 37q20 20 26 39.5t6 52.5v286q24 5 47.5 15.5t48.5 26.5l-135 93v121l335 -233q9 14 20.5 24.5t26.5 15.5zM276 86v328l-87 61l-32 -22v-319z" />
    <glyph glyph-name="e" unicode="e" horiz-adv-x="356" 
d="M328 397q-52 -39 -96 -75q-52 -43 -94 -81v-118l87 -42l73 50l17 -19q-44 -31 -83 -60q-52 -41 -78 -61q-40 25 -75 40t-81 25q18 17 25.5 38t7.5 48v318q72 37 152 95zM234 359l-100 112v-198z" />
    <glyph glyph-name="f" unicode="f" horiz-adv-x="331" 
d="M301 103q-30 -33 -56 -58q-2 -2 -57 -54q-35 31 -74.5 53t-88.5 40q33 32 33 87v300h-58l9 63h49v123q33 16 61.5 37t58.5 49l111 -27l-23 -87l-95 22v-117h83l-8 -63h-75v-333l76 -54l39 37z" />
    <glyph glyph-name="g" unicode="g" horiz-adv-x="483" 
d="M451 407l-85 16v-281q0 -43 38.5 -103t38.5 -83v-4q-4 -36 -54 -68q-41 -22 -81 -45q-35 11 -72.5 18.5t-68.5 7.5q-63 0 -129 -26l-28 26l121 144l-103 77v392q45 12 89 33q30 14 82 44l167 -84l85 59v-123zM264 161v265l-133 43v-331l67 -49zM373 -84v11q-54 53 -75 85
q-31 47 -39 106l-151 -179q27 4 51 7.5t40 3.5q40 0 83 -9t91 -25z" />
    <glyph glyph-name="h" unicode="h" 
d="M397 123q0 -105 -99 -175q-78 -55 -196 -78l-5 11q112 51 135 69q59 46 59 130v329q-2 13 -9 24q-10 16 -29 29l-83 -68v-289l29 -35l-87 -83l-87 78l36 40v366h-56v63h56v67q0 38 -8 67t-33 50l5 8q21 -8 38.5 -17.5t33.5 -22.5h12q23 27 48 41q29 17 61 17l4 -3
q-52 -43 -52 -106v-208l151 127q76 -51 76 -145v-286z" />
    <glyph glyph-name="i" unicode="i" horiz-adv-x="233" 
d="M188 728l-86 -128h-10l27 128h69zM205 80l-105 -93q-39 23 -56.5 54t-17.5 72l2 21v306l-33 38l86 77l89 -80l-29 -35v-325q2 -10 8 -18.5t18 -15.5l19 16z" />
    <glyph glyph-name="j" unicode="j" horiz-adv-x="233" 
d="M209 728l-83 -128h-13l28 128h68zM209 453q-32 -51 -45 -99.5t-13 -99.5q0 -18 6 -80t6 -104q0 -74 -37 -125.5t-110 -86.5l-11 17q35 32 50 68t15 79q0 26 -13 157q-6 60 -6 99q0 44 5.5 80t20.5 72l-38 39l-34 -21l-14 14l114 93q30 -32 50 -52q27 -27 54 -50z" />
    <glyph glyph-name="k" unicode="k" horiz-adv-x="483" 
d="M451 81l-105 -90q-26 20 -37.5 47t-16.5 68l-103 -119q-46 29 -80 47q-45 23 -84 36q18 18 24.5 38.5t6.5 48.5v314h-56v63h56v104q0 24 -9.5 41t-30.5 39l4 8q38 -14 73 -40h12q24 28 47 41q29 17 63 17l2 -3q-53 -44 -53 -106v-220l139 140l104 -118q-21 -19 -52 -49
l-52 -52q59 -48 75 -135t36 -115l19 17zM312 384l-66 76l-82 -85v-134zM286 147q-12 67 -62 117l-60 -56v-95l61 -35z" />
    <glyph glyph-name="l" unicode="l" horiz-adv-x="306" 
d="M275 89q-26 -25 -52 -49q-44 -42 -52 -49q-32 30 -71.5 52.5t-89.5 40.5q18 17 25 37.5t7 49.5v469q0 20 -12 41q-8 14 -27 35l4 3q41 -9 76 -37h9q27 27 54 42t60 19l3 -5q-27 -20 -41 -46.5t-14 -58.5v-495l77 -54l26 24z" />
    <glyph glyph-name="m" unicode="m" horiz-adv-x="731" 
d="M693 80l-103 -93q-42 27 -56 59.5t-14 87.5v280l-45 45l-74 -61v-290l29 -40l-81 -81l-90 81l35 37v302q0 15 -11.5 29.5t-28.5 25.5l-83 -68v-286l31 -40l-84 -81l-87 81l32 37v302q0 29 -24 52l-17 -16l-15 19l93 93q41 -25 56 -52t15 -77l157 129q55 -50 70 -128
q36 29 73 61q28 25 69 64l73 -77l45 43l16 -18q-20 -31 -30 -46q-13 -20 -18 -30v-309q5 -10 12 -19.5t17 -14.5l19 16z" />
    <glyph glyph-name="n" unicode="n" horiz-adv-x="483" 
d="M451 80l-102 -93q-41 28 -55.5 60.5t-14.5 86.5v280l-46 45l-73 -61v-290l29 -40l-83 -81l-86 81l30 37v302q0 31 -22 52l-18 -16l-15 19l94 93q39 -25 52.5 -50t18.5 -78q28 23 53 45q34 30 85 80l75 -77l46 43l17 -18q-27 -36 -51 -76v-309q6 -10 8 -13q9 -13 21 -21
l22 16z" />
    <glyph glyph-name="o" unicode="o" horiz-adv-x="406" 
d="M370 80q-50 -16 -90.5 -38t-74.5 -55q-87 72 -203 97q21 19 27 39t6 53v284q46 13 84.5 36.5t73.5 58.5q53 -36 83 -52q48 -25 94 -32v-391zM262 86v321l-121 53v-322q27 -13 59 -26.5t62 -25.5z" />
    <glyph glyph-name="p" unicode="p" 
d="M395 106q-35 -19 -71 -50q-21 -18 -65 -61q-16 10 -32 19q-29 15 -57 30l-3 -41q0 -50 10.5 -82t47.5 -82q-43 5 -68 23q-16 11 -52 54q-25 -26 -40 -36q-23 -15 -49 -15q29 34 38 63t9 67v75q-4 2 -14 2t-16 1h-28v42q29 13 58 19v268q0 33 -4.5 45t-16.5 20l-27 -19
l-17 14l95 93q37 -19 55 -46.5t23 -71.5q38 38 56 57q31 32 52 61q59 -20 89 -72q27 -47 27 -113v-264zM291 90v307q0 18 -18.5 36.5t-38.5 26.5l-63 -62v-267q30 -8 59 -18q19 -6 61 -23z" />
    <glyph glyph-name="q" unicode="q" horiz-adv-x="406" 
d="M384 -135q-26 0 -49 15q-12 8 -41 36q-37 -43 -51 -53q-26 -19 -68 -24q26 34 40 66.5t14 71.5v138l-156 -124q-33 22 -52 61.5t-19 81.5v335q89 24 158 86q55 -42 95 -64q56 -30 110 -40l-28 -44v-432q0 -31 12 -56.5t35 -53.5zM229 151v243l-121 59v-315q0 -17 11 -32
q8 -11 25 -22z" />
    <glyph glyph-name="r" unicode="r" horiz-adv-x="381" 
d="M352 465l-77 -71l-66 71l-39 -35v-302l55 -47l32 27l18 -19q-26 -25 -52 -49q-44 -42 -52 -49q-34 33 -67.5 54t-78.5 39q33 32 33 87v236q0 15 -6 27.5t-17 24.5l-19 -16l-16 19l97 93q35 -20 50 -39t19 -56l110 95z" />
    <glyph glyph-name="s" unicode="s" horiz-adv-x="458" 
d="M415 581q0 -25 -33 -75l-100 -144l103 -66v-223q-35 -12 -71 -34q-30 -18 -67 -48q-28 18 -55.5 26t-53.5 8q-51 0 -112 -28l-19 13l134 201l-106 62v187q37 17 71 42t65 56q34 -20 72 -34.5t69 -14.5l27 3q14 0 26.5 11.5t12.5 27.5q0 10 -8.5 20.5t-15.5 20.5l-5 14
q0 10 8 16t21 6q14 0 25.5 -12.5t11.5 -34.5zM303 440q-16 -2 -33.5 -4.5t-25.5 -2.5q-26 0 -51.5 7t-54.5 20v-132l61 -36zM291 89v152l-66 37l-120 -166q14 3 31.5 7t36.5 4q28 0 56 -8.5t62 -25.5z" />
    <glyph glyph-name="t" unicode="t" horiz-adv-x="285" 
d="M253 471h-112v-341l55 -49l32 27l16 -19l-103 -98q-40 36 -66 54q-34 23 -77 39q17 17 23.5 37t6.5 50v300h-37v22l150 202v-161h112v-63z" />
    <glyph glyph-name="u" unicode="u" horiz-adv-x="483" 
d="M453 80l-103 -93q-37 27 -53 55.5t-16 72.5l-155 -124q-33 22 -52 61.5t-19 81.5v309l-17 19l-25 -19l-16 19l109 93l89 -74l-34 -32v-311q0 -18 9 -30t26 -24l85 67v292l-28 38l83 74l84 -74l-32 -32v-334q0 -8 8.5 -17.5t20.5 -16.5l20 16z" />
    <glyph glyph-name="v" unicode="v" horiz-adv-x="406" 
d="M378 80q-50 -16 -90 -37.5t-77 -55.5q-87 72 -201 97q21 20 27.5 40t6.5 52v273q-46 61 -46 113q0 40 28.5 75.5t82.5 65.5l9 -13q-46 -46 -46 -78q0 -18 39 -72t39 -110l153 125q40 -36 59 -69q16 -28 16 -53v-353zM270 86v312q0 15 -6 26t-30 38l-84 -68v-256
q30 -14 60 -27q13 -6 60 -25z" />
    <glyph glyph-name="w" unicode="w" horiz-adv-x="631" 
d="M596 80q-43 -13 -84 -38q-37 -22 -73 -55q-37 22 -69.5 35t-57.5 13q-26 0 -50 -10.5t-51 -37.5q-38 32 -94 58q-47 22 -102 39q20 20 26 39.5t6 52.5v273q-47 62 -47 113q0 40 29 75t84 66l8 -13q-22 -22 -33 -42.5t-11 -35.5q0 -18 38 -72t38 -110l146 125
q36 -30 52.5 -57t20.5 -71l146 128q37 -32 54 -58q24 -36 24 -74v-343zM497 81v317q0 14 -7 26q-2 4 -31 38l-84 -68v-271q9 -4 45.5 -17.5t76.5 -24.5zM267 81v317q0 13 -6 24t-30 40l-78 -68v-264q60 -28 114 -49z" />
    <glyph glyph-name="x" unicode="x" horiz-adv-x="483" 
d="M451 81l-94 -94q-37 28 -70 78q-12 18 -85 159l-94 -237l-106 68l36 93l88 -36l60 145l-78 150q-22 44 -61 68l-37 -26l-13 16l106 90q47 -27 83 -84q8 -12 58 -106l77 190l106 -62l-35 -92l-84 42l-51 -112l83 -164q25 -53 67 -89l30 22z" />
    <glyph glyph-name="y" unicode="y" 
d="M402 362q0 -91 -64 -167q-50 -59 -143 -115q-86 -48 -99 -57q-74 -51 -74 -91l1 -5q0 -28 24.5 -43t57.5 -15q20 0 36 4t29 15q18 16 21 18q17 13 27 13t16 -11q1 -2 2 -11q0 -24 -48 -43q-39 -15 -63 -15h-17q-43 0 -73 15q-39 19 -42 56v10q0 38 44 97t44 79v311
q0 20 -9 35q-2 4 -14 18l-35 -30l-18 21l110 104q39 -22 55 -52.5t16 -78.5l147 130q34 -39 51.5 -88.5t17.5 -103.5zM303 331q0 33 -11.5 65t-35.5 57l-70 -61v-286q50 40 83.5 101.5t33.5 123.5z" />
    <glyph glyph-name="z" unicode="z" horiz-adv-x="306" 
d="M279 184q0 -77 -68 -128q-89 -50 -128 -79q-14 -9 -24.5 -26.5t-10.5 -33.5q0 -14 8.5 -25.5t24.5 -16.5q4 0 12 2q20 5 28 5q20 0 20 -16q1 -11 -8 -17t-24 -10q-35 0 -56.5 25.5t-21.5 58.5q0 19 7 36.5t18 31.5q7 7 51 46q32 28 47.5 53.5t15.5 57.5q0 19 -5 33.5
t-17 26t-29.5 16.5t-34.5 5t-36 -3t-46 -9l161 167l-91 91l-59 -45l-16 23l141 102q29 -29 58 -57q40 -35 70 -38v-7l-135 -141q64 0 103 -30q45 -34 45 -98z" />
    <glyph glyph-name="braceleft" unicode="{" horiz-adv-x="387" 
d="M357 -129q-120 0 -163 33q-50 38 -50 154v110q0 88 -31 120t-118 42v34q89 12 117 40q32 32 32 122v110l-1 5q0 110 52 150q45 34 162 34v-28q-81 0 -108 -40q-20 -30 -20 -110l1 -32v-47q0 -103 -21 -141q-30 -55 -130 -79q97 -25 128 -79q23 -40 23 -137v-52l-1 -32
q0 -82 19 -110q26 -38 109 -38v-29z" />
    <glyph glyph-name="bar" unicode="|" horiz-adv-x="102" 
d="M79 -260h-79v1110h79v-1110z" />
    <glyph glyph-name="braceright" unicode="}" horiz-adv-x="387" 
d="M357 330q-87 -9 -118.5 -40t-31.5 -115l1 -7v-110q0 -116 -50 -154q-43 -33 -165 -33v29q82 0 108 38q19 28 19 110v32l-1 52q0 96 23 136q32 55 130 80q-99 24 -130 78q-23 41 -23 142l1 47v32q0 82 -18 110q-26 40 -109 40v28q120 0 164 -34q51 -40 51 -155v-110l-1 -9
q0 -82 32 -112t118 -41v-34z" />
    <glyph glyph-name="asciitilde" unicode="~" horiz-adv-x="696" 
d="M680 413q-26 -68 -75 -100q-44 -29 -103 -29q-29 0 -53.5 4.5t-104.5 26.5q-41 11 -85.5 22.5t-73.5 11.5q-39 0 -70.5 -17t-60.5 -60l-34 18q32 72 77.5 102.5t106.5 30.5q39 0 77 -7.5t91 -23.5q76 -22 98.5 -27t46.5 -5q37 0 70 17t60 57z" />
    <glyph glyph-name="nonbreakingspace" unicode="&#xa0;" horiz-adv-x="540" 
 />
    <glyph glyph-name="exclamdown" unicode="&#xa1;" horiz-adv-x="198" 
d="M183 550l-93 -87q-36 46 -83 91l92 85q46 -37 84 -89zM176 4l-84 -98l-85 98q28 93 47 207q13 80 26 211h22q17 -167 35 -263q13 -68 39 -155z" />
    <glyph glyph-name="cent" unicode="&#xa2;" horiz-adv-x="291" 
d="M272 550l-50 -68l-26 18v-311l15 -6l45 35l13 -17q-37 -31 -73 -67v-155h-49v112q-35 26 -71.5 45t-78.5 31q14 31 17 40q8 23 8 44v290q73 33 125 91v62h49v-89zM153 205v324l-40 24v-335z" />
    <glyph glyph-name="sterling" unicode="&#xa3;" horiz-adv-x="460" 
d="M430 92l-38 -106q-52 24 -96.5 35.5t-85.5 11.5q-71 0 -196 -40l-17 25q23 18 56 36q23 12 64 31q8 29 8 56q0 56 -28 101h-92v26h80l-15 44h-65v27h59q-2 13 -4 27t-2 16q0 88 57 171q50 73 135 129l166 -79l-46 -93l-184 86q-34 -50 -34 -99q0 -40 23 -97
q13 -31 26 -61h132v-27h-128q2 -5 2 -10v-12q0 -15 -2 -22h128v-26h-128q-6 -31 -21 -73q-10 -28 -29 -71q34 7 70.5 12t64.5 5q72 0 140 -23z" />
    <glyph glyph-name="currency" unicode="&#xa4;" horiz-adv-x="441" 
d="M606 0l-47 -47l-55 55q-64 -56 -152 -56q-43 0 -81.5 13.5t-73.5 42.5l-55 -55l-48 47l63 55q-27 30 -41.5 69t-14.5 80q0 88 56 150l-55 55l48 48l55 -55q63 50 154 50q89 0 145 -50l55 55l47 -40l-55 -63q26 -23 41 -62t15 -83q0 -92 -56 -154zM362 16q77 0 125 59
q44 54 44 131q0 75 -44 124q-50 56 -141 56q-88 -8 -136 -60q-43 -47 -43 -116q0 -77 51 -133q56 -61 144 -61z" />
    <glyph glyph-name="yen" unicode="&#xa5;" horiz-adv-x="855" 
d="M832 448q0 -146 -77 -234q-84 -96 -240 -96h-197q-44 0 -81.5 -10.5t-62.5 -34.5h172l-57 -35h-137q-6 -14 -6 -30h200l-57 -35h-139q9 -33 40 -49.5t71 -16.5h15q7 1 10 1q93 36 155.5 59t105.5 23q58 0 88.5 -28t30.5 -68q0 -22 -11.5 -38.5t-30.5 -16.5
q-20 0 -32.5 15.5t-12.5 39.5q0 9 1 13q3 7 6.5 15.5t3.5 14.5q0 14 -21 14q-4 0 -16 -2q-71 -36 -146.5 -74t-123.5 -38q-64 0 -107.5 39.5t-53.5 96.5h-128l57 35h69q1 8 1 11q1 8 4 19h-131l57 35h90q21 33 55 52q40 22 94 22q1 6 1 11v12q0 61 -33.5 110.5t-92.5 76.5v9
q33 -3 51 -5q53 -7 74 -17v12q0 62 -30 100q-26 33 -92 62v7q24 6 48 6q18 0 36.5 -3.5t37.5 -9.5q1 7 2 21.5t1 23.5q0 83 -33 123q-29 35 -80 35h-9v11q47 24 96 24q52 0 91.5 -28t55.5 -82q57 40 97 59q58 27 110 27q98 0 158 -94q53 -83 53 -190zM687 518
q-12 69 -43 108q-35 44 -88 44q-15 0 -32.5 -4t-34.5 -11v-143q48 -36 95 -36q26 0 51.5 11t51.5 31zM695 414v47q-3 22 -4 32q-55 -40 -112 -40q-47 0 -90 28v-144q41 28 90 28q27 0 54.5 -8.5t56.5 -25.5q3 17 4 37t1 46zM684 304q-52 40 -104 40q-47 0 -91 -33v-169
q69 0 123 45t72 117zM460 142v498l-49 -24v-474h49z" />
    <glyph glyph-name="brokenbar" unicode="&#xa6;" horiz-adv-x="172" 
d="M243 684l-70 -304h-66l70 304h66zM155 304l-70 -304h-66l70 304h66z" />
    <glyph glyph-name="section" unicode="&#xa7;" horiz-adv-x="460" 
d="M418 332q0 -40 -15 -79q-11 -30 -42 -79q24 -24 36.5 -53.5t12.5 -60.5q0 -73 -58.5 -136.5t-133.5 -73.5l-216 47l34 91l279 -68q10 17 17.5 44t7.5 50q0 22 -6.5 39.5t-22.5 31.5q-37 25 -97 48q-12 5 -187 57q-5 22 -8.5 40.5t-3.5 31.5q0 46 25 98q10 21 34 61
q-21 24 -32 52t-11 55q0 69 55.5 126.5t131.5 69.5l194 -42l-37 -95l-251 66q-13 -22 -20 -40t-7 -38q0 -9 4 -21.5t9 -22.5q20 -34 90 -63q35 -14 206 -58q6 -18 9 -40t3 -38zM352 284q0 16 -4.5 28t-17.5 20q-19 11 -57 21q-52 13 -63 17q-30 8 -54.5 16t-52.5 20
q-11 -27 -16 -43q-10 -29 -10 -48q0 -37 35 -52q50 -23 133 -48q41 -13 83 -25l10 30q14 41 14 64z" />
    <glyph glyph-name="dieresis" unicode="&#xa8;" horiz-adv-x="362" 
d="M425 535l-63 -63q-16 17 -27.5 39.5t-11.5 39.5l63 47zM291 535l-63 -63q-19 20 -29 38t-10 41l63 47z" />
    <glyph glyph-name="copyright" unicode="&#xa9;" horiz-adv-x="740" 
d="M496 -16q-159 0 -258 116q-91 106 -91 252q0 139 84 230q95 103 265 103q166 0 258 -102q82 -91 82 -229q0 -146 -89 -253q-97 -117 -251 -117zM496 24q142 0 226 97q76 88 76 214q0 127 -75 214q-83 97 -227 97q-151 0 -235 -91q-75 -81 -75 -205q0 -130 80 -223
q88 -103 230 -103zM646 228q-15 -46 -61.5 -74t-101.5 -28q-77 0 -126 50q-58 59 -58 170q0 76 63 132.5t152 56.5q61 0 124 -31v-102h-24q0 50 -29 76t-73 26q-60 0 -106 -41q-52 -46 -52 -117q0 -75 49.5 -132t109.5 -57q33 0 60 16.5t49 54.5h24z" />
    <glyph glyph-name="ordfeminine" unicode="&#xaa;" horiz-adv-x="259" 
d="M251 429l-59 -54q-42 24 -42 78l-87 -78h-5q-24 24 -34 41q-14 24 -14 52q0 36 19 70q16 29 46 57l-32 91l10 -1q39 0 67 28l93 -33l20 15l4 -4q-17 -27 -24 -55v-185q6 -16 17 -21l11 8zM150 562v76l-91 36l27 -77zM150 472v75l-65 36q-19 -36 -19 -66q0 -49 36 -88z
" />
    <glyph glyph-name="guillemotleft" unicode="&#xab;" horiz-adv-x="339" 
d="M409 394l-126 -174l40 -196l-47 -40l-56 229l174 212zM291 394l-126 -174l40 -196l-48 -40l-55 229l174 212z" />
    <glyph glyph-name="logicalnot" unicode="&#xac;" horiz-adv-x="1200" 
d="M1182 47q0 -36 -32 -48q-18 -7 -52 -7q-41 0 -61 22q-14 15 -14 33h62q0 -20 20 -20q19 0 19 16q0 6 -11 10l-59 16q-28 6 -28 39q0 25 23.5 38.5t49.5 13.5q32 0 55.5 -12t27.5 -36h-58q0 6 -7 9t-13 3q-15 0 -15 -11q0 -4 6 -10q7 -3 30 -9l24 -6q33 -9 33 -41z
M926 168h-61v97q0 6 -8 13t-17 7q-8 0 -15 -6t-7 -14v-97h-62v160h62v-20q20 23 58 23q19 0 34.5 -16.5t15.5 -42.5v-104zM743 348h-65v34h64zM1016 64h-114q0 -15 8.5 -23.5t21.5 -8.5q16 0 24 11h56q-10 -27 -36 -41q-19 -10 -40 -10q-44 0 -69.5 23.5t-25.5 59.5
q0 35 24 60t61 25q40 0 65 -25t25 -71zM742 168h-64v169h64v-169zM663 168h-60q-10 0 -20 10t-10 22v94h-23v34h23v34h61v-34h29v-34h-29v-74q0 -8 11 -8.5t18 -0.5v-43zM832 -4h-59v95q0 6 -5.5 11.5t-14.5 5.5q-7 0 -14.5 -7.5t-7.5 -19.5v-85h-59v92q0 8 -7 14t-14 6
t-14.5 -6.5t-7.5 -14.5v-91h-59v160h59v-20q20 24 43 24q18 0 28.5 -6t22.5 -19q8 8 14 12q19 13 40 13q19 0 35 -12t20 -32v-120zM1181 -53h-792v32h792v-32zM542 219q0 -36 -31 -48q-18 -7 -52 -7q-41 0 -61 22q-14 15 -14 33h62q0 -11 6 -16q4 -3 15 -3q18 0 18 15
q0 6 -10 10l-59 16q-29 8 -29 41q0 25 23.5 37t50.5 12q33 0 55 -11t26 -35h-57q0 6 -7 9t-12 3q-17 0 -17 -11q0 -3 2 -6t5 -5l55 -15q31 -9 31 -41zM559 -4h-67l-2 16q-8 -9 -25 -14.5t-32 -5.5q-51 0 -51 46q0 24 13 35.5t51 17.5l36 5q6 0 6 12t-18 12q-20 0 -20 -12
h-60q0 20 15 34q20 18 63 18q83 0 83 -48v-93q0 -19 8 -23zM374 168h-62v21q-11 -13 -25.5 -19t-29.5 -6q-18 0 -34 14q-19 17 -19 41v109h61v-91q0 -6 5.5 -13.5t14.5 -7.5q27 0 27 20v92h62v-160zM374 -49q0 -14 -12.5 -23.5t-31.5 -9.5h-43v28q9 0 17.5 1t8.5 10v194h61
v-200zM198 168h-66l-2 17h-4q-8 -10 -23.5 -15.5t-29.5 -5.5q-52 0 -52 46q0 24 13.5 35.5t50.5 18.5l36 4q2 3 3 4q3 5 3 8q0 14 -18 14q-20 0 -20 -14h-59q0 20 15 33q21 18 62 18q83 0 83 -46v-93q0 -18 8 -24zM959 96q-4 23 -27 23q-11 0 -20.5 -6.5t-9.5 -16.5h57z
M488 65l-15 -3q-18 -7 -20 -8q-10 -5 -10 -14q0 -13 17 -13q12 0 23 9q5 13 5 29zM127 238l-15 -4q-30 -4 -30 -22q2 -6 4 -8q5 -4 12 -4q15 0 24 9q5 12 5 29z" />
    <glyph glyph-name="minus" unicode="&#xad;" horiz-adv-x="672" 
d="M650 296l-50 -31l-50 30h-460l-40 -30l-53 31v76l48 38l45 -40h460l50 35l50 -33v-76z" />
    <glyph glyph-name="registered" unicode="&#xae;" horiz-adv-x="740" 
d="M504 -8q-177 0 -278 109q-91 98 -91 240t88 242q97 110 257 110q164 0 260 -112q86 -100 86 -246q0 -140 -80 -236q-89 -107 -242 -107zM496 24q141 0 221 92q72 83 72 206q0 135 -81 232q-90 107 -236 107q-150 0 -231 -85q-72 -76 -72 -195q0 -137 88 -243
q95 -114 239 -114zM661 157q-9 -2 -18.5 -2h-13.5q-52 0 -72 37q-20 56 -37 91q-13 35 -43 48q-19 8 -52 8h-16v-103q0 -35 13 -49t43 -14v-16h-142v16q28 0 37.5 17t9.5 54v244q0 34 -26 41q-15 3 -29 6v16h189q55 0 86 -32q28 -29 28 -71q0 -41 -26.5 -71.5t-71.5 -30.5
q42 -35 73 -113q22 -56 68 -60v-16zM559 409q2 18 2 27q0 37 -15.5 62t-49.5 30q-5 0 -19.5 1t-22.5 1q-21 0 -33 -7t-12 -27v-142q84 0 115 14.5t35 40.5z" />
    <glyph glyph-name="macron" unicode="&#xaf;" horiz-adv-x="475" 
d="M515 480h-275v75h275v-75z" />
    <glyph glyph-name="degree" unicode="&#xb0;" horiz-adv-x="290" 
d="M250 559q-30 -8 -49.5 -17t-39.5 -25q-45 32 -109 43q11 9 14.5 18t3.5 23v127q49 12 85 42q32 -18 44 -23q25 -11 51 -14v-174zM192 561v143l-65 24v-144z" />
    <glyph glyph-name="plusminus" unicode="&#xb1;" horiz-adv-x="672" 
d="M650 16l-50 -31l-50 30h-460l-40 -30l-53 31v76l48 38l45 -40h195v206l-195 -1l-40 -30l-53 31v76l48 38l45 -40l195 2v183l-25 50l25 60h78l27 -60l-25 -50l-2 -183l187 -2l50 35l50 -33v-76l-50 -31l-50 30l-187 1l2 -206h185l50 35l50 -33v-76z" />
    <glyph glyph-name="twosuperior" unicode="&#xb2;" horiz-adv-x="375" 
d="M307 433l-48 -57q-56 24 -110 24q-29 0 -55.5 -6t-59.5 -18q12 65 74 121q34 30 69 61q25 25 40 53t15 55q0 20 -8.5 39t-26.5 36l-112 -89l-42 44l116 93l142 -88v-15q0 -92 -80 -145q-121 -81 -143 -110q38 14 66.5 21t60.5 7q57 0 102 -26z" />
    <glyph glyph-name="threesuperior" unicode="&#xb3;" horiz-adv-x="342" 
d="M298 488q0 -57 -56 -88q-44 -24 -109 -30l-105 89l45 43l125 -106q15 16 23.5 38t8.5 46q0 40 -23 67q-15 18 -36 25t-50 7h-17v17q50 0 81 26t31 76q0 39 -24 39q-6 0 -20 -8l-79 -58l-38 40l93 70l134 -66l1 -24q0 -35 -19.5 -59.5t-60.5 -43.5q40 -13 64 -33
q31 -26 31 -63v-4z" />
    <glyph glyph-name="acute" unicode="&#xb4;" horiz-adv-x="271" 
d="M242 748q-37 -48 -89 -91q-48 -39 -105 -71l-43 19q85 74 157 170z" />
    <glyph glyph-name="mu" unicode="&#xb5;" horiz-adv-x="460" 
d="M541 157l-13 -68q-38 -27 -100 -62q-77 -44 -95 -44q-15 0 -25 10t-10 25t1.5 24t3.5 20l-59 -33q-21 -12 -36 -21q-29 -16 -45 -22l-47 -177l-129 -58q28 61 43 98q47 112 67.5 184.5t36.5 148t16 109.5l2 2q-9 0 -24 -6q-41 -19 -67 -30l11 59q42 23 90 47q68 34 79 34
q29 0 29 -26q0 -12 -7 -37q-10 -37 -12 -45l-36 -148q-10 -44 -10 -65q-1 -7 -1 -11q0 -6 4 -6q9 0 37 16q32 20 39 24l33 19l56 242l123 56q-13 -38 -20 -61q-23 -73 -33.5 -114t-20.5 -81.5t-10 -64.5q-3 -4 -4 -6v-7q10 0 46 21q22 13 45 27z" />
    <glyph glyph-name="periodcentered" unicode="&#xb7;" horiz-adv-x="380" 
d="M230 320q-18 -19 -45 -19q-26 0 -45 19t-19 45q0 24 19 45q21 19 45 19q26 0 45 -19t19 -45q0 -27 -19 -45z" />
    <glyph glyph-name="periodcentered" unicode="&#x2219;" horiz-adv-x="380" 
d="M230 320q-18 -19 -45 -19q-26 0 -45 19t-19 45q0 24 19 45q21 19 45 19q26 0 45 -19t19 -45q0 -27 -19 -45z" />
    <glyph glyph-name="cedilla" unicode="&#xb8;" horiz-adv-x="299" 
d="M220 8l-55 -47q10 -27 10 -49q0 -43 -42 -68q-55 -23 -78 -33l-16 16l44 22q28 17 28 37q0 19 -24 43l94 79h39z" />
    <glyph glyph-name="onesuperior" unicode="&#xb9;" horiz-adv-x="255" 
d="M172 441l-73 -66l-69 53q11 10 14 14q5 7 5 17v228q0 28 -26 49l-25 -21l-9 10l73 63q21 -17 30 -27q20 -23 20 -60v-252l25 -21l25 22z" />
    <glyph glyph-name="ordmasculine" unicode="&#xba;" horiz-adv-x="244" 
d="M237 428q-31 -10 -54 -22.5t-45 -33.5q-53 44 -122 58q13 12 16.5 23.5t3.5 32.5v170q54 16 95 57q31 -21 50 -31q29 -15 56 -19v-235zM172 432v192l-72 32v-193z" />
    <glyph glyph-name="guillemotright" unicode="&#xbb;" horiz-adv-x="378" 
d="M394 220l-181 -212l-24 31l142 174l-63 196l47 40zM276 220l-182 -212l-23 31l142 174l-71 196l47 40z" />
    <glyph glyph-name="onequarter" unicode="&#xbc;" horiz-adv-x="650" 
d="M594 127h-71v-64l25 -18l20 16l7 -11l-62 -57l-72 46q13 16 18 25.5t5 18.5l-1 44h-133l-17 57l162 222q22 -12 35 -29.5t13 -41.5v-159h57zM463 176v143q0 6 -5.5 13t-8.5 10l-118 -158l2 -8h130zM161 384l-70 -66l-66 53q9 9 13.5 15.5t4.5 15.5v228q0 28 -24 49
l-24 -21l-9 10l70 63q26 -22 36.5 -39.5t10.5 -47.5v-252l25 -21l23 22zM442 678q-146 -337 -277 -679h-64l271 679h70z" />
    <glyph glyph-name="onehalf" unicode="&#xbd;" horiz-adv-x="680" 
d="M648 52l-48 -57q-56 24 -110 24q-29 0 -55.5 -6t-59.5 -18q12 65 74 121q34 30 69 61q25 25 40 53t15 55q0 20 -8.5 39t-26.5 36l-112 -89l-42 44l116 93l142 -88v-15q0 -92 -80 -145q-121 -81 -143 -110q38 14 66.5 21t60.5 7q57 0 102 -26zM164 385l-73 -66l-69 53
q11 10 14 14q5 7 5 17v228q0 28 -26 49l-25 -21l-9 10l73 63q21 -17 30 -27q20 -23 20 -60v-252l25 -21l25 22zM442 678q-146 -337 -277 -679h-64l271 679h70z" />
    <glyph glyph-name="threequarters" unicode="&#xbe;" horiz-adv-x="715" 
d="M684 137h-71v-64l25 -18l20 16l7 -11l-62 -57l-72 46q13 16 18 25.5t5 18.5l-1 44h-133l-17 57l162 222q22 -12 35 -29.5t13 -41.5v-159h57zM553 186v143q0 6 -5.5 13t-8.5 10l-118 -158l2 -8h130zM268 381q0 -57 -56 -88q-44 -24 -109 -30l-105 89l45 43l125 -106
q15 16 23.5 38t8.5 46q0 40 -23 67q-15 18 -36 25t-50 7h-17v17q50 0 81 26t31 76q0 39 -24 39q-6 0 -20 -8l-79 -58l-38 40l93 70l134 -66l1 -24q0 -35 -19.5 -59.5t-60.5 -43.5q40 -13 64 -33q31 -26 31 -63v-4zM522 678q-146 -337 -277 -679h-64l271 679h70z" />
    <glyph glyph-name="questiondown" unicode="&#xbf;" horiz-adv-x="315" 
d="M270 560l-91 -87q-19 25 -40 48q-10 12 -42 43l91 85q28 -23 45 -41q21 -22 37 -48zM312 48l-64 -126q-21 -2 -30 -3t-25 -1q-25 0 -44 3.5t-40 12.5q-39 18 -63.5 57.5t-24.5 83.5q0 21 2 28q11 44 83 145q58 82 58 185h27l4 -44q0 -47 -14 -94q-26 -98 -51 -196
q0 -36 21.5 -59.5t58.5 -23.5q21 0 49 11t53 21z" />
    <glyph glyph-name="Agrave" unicode="&#xc0;" horiz-adv-x="706" 
d="M674 93l-134 -112q-32 20 -54 55.5t-31 76.5l-168 -129l-166 88q-8 5 -23 11t-25 6q-3 0 -9.5 -3t-12.5 -6q-7 -12 -7 -22q0 -7 6 -22t6 -23q0 -12 -10 -20t-21 -8q-13 0 -20 10.5t-7 23.5q0 16 9.5 40.5t30.5 55.5l104 152q-60 55 -84 88q-39 54 -39 112l-3 26
q0 49 21 96t60.5 86t92.5 60t108 21q58 0 119.5 -20.5t112.5 -56.5q31 36 60 55.5t71 28.5l6 -3q-47 -44 -66 -75q-26 -42 -26 -95l10 -392q0 -37 6 -64.5t25 -47.5l38 29zM453 327l-4 253l-22 32h-7l-195 -285h228zM394 635q-31 14 -62.5 20t-62.5 6q-90 0 -150.5 -56.5
t-60.5 -135.5q0 -46 25 -93.5t74 -86.5l152 223q-8 13 -21 20t-29 7q-2 0 -8 -2t-10 -2q-26 -4 -41.5 -17t-29.5 -40q0 63 40 97q34 29 91 29q33 0 65 -8zM455 154l-2 90h-286l-41 -60l233 -106zM552 752l-43 -19q-60 33 -105 70q-49 40 -89 92l80 27q72 -96 157 -170z" />
    <glyph glyph-name="Aacute" unicode="&#xc1;" horiz-adv-x="706" 
d="M674 93l-134 -112q-32 20 -54 55.5t-31 76.5l-168 -129l-166 88q-8 5 -23 11t-25 6q-3 0 -9.5 -3t-12.5 -6q-7 -12 -7 -22q0 -7 6 -22t6 -23q0 -12 -10 -20t-21 -8q-13 0 -20 10.5t-7 23.5q0 16 9.5 40.5t30.5 55.5l104 152q-60 55 -84 88q-39 54 -39 112l-3 26
q0 49 21 96t60.5 86t92.5 60t108 21q58 0 119.5 -20.5t112.5 -56.5q31 36 60 55.5t71 28.5l6 -3q-47 -44 -66 -75q-26 -42 -26 -95l10 -392q0 -37 6 -64.5t25 -47.5l38 29zM453 327l-4 253l-22 32h-7l-195 -285h228zM394 635q-31 14 -62.5 20t-62.5 6q-90 0 -150.5 -56.5
t-60.5 -135.5q0 -46 25 -93.5t74 -86.5l152 223q-8 13 -21 20t-29 7q-2 0 -8 -2t-10 -2q-26 -4 -41.5 -17t-29.5 -40q0 63 40 97q34 29 91 29q33 0 65 -8zM455 154l-2 90h-286l-41 -60l233 -106zM696 871q-38 -30 -86.5 -54t-107.5 -44l-43 12q45 23 82.5 47.5t74.5 54.5z
" />
    <glyph glyph-name="Acircumflex" unicode="&#xc2;" horiz-adv-x="706" 
d="M674 93l-134 -112q-32 20 -54 55.5t-31 76.5l-168 -129l-166 88q-8 5 -23 11t-25 6q-3 0 -9.5 -3t-12.5 -6q-7 -12 -7 -22q0 -7 6 -22t6 -23q0 -12 -10 -20t-21 -8q-13 0 -20 10.5t-7 23.5q0 16 9.5 40.5t30.5 55.5l104 152q-60 55 -84 88q-39 54 -39 112l-3 26
q0 49 21 96t60.5 86t92.5 60t108 21q58 0 119.5 -20.5t112.5 -56.5q31 36 60 55.5t71 28.5l6 -3q-47 -44 -66 -75q-26 -42 -26 -95l10 -392q0 -37 6 -64.5t25 -47.5l38 29zM453 327l-4 253l-22 32h-7l-195 -285h228zM394 635q-31 14 -62.5 20t-62.5 6q-90 0 -150.5 -56.5
t-60.5 -135.5q0 -46 25 -93.5t74 -86.5l152 223q-8 13 -21 20t-29 7q-2 0 -8 -2t-10 -2q-26 -4 -41.5 -17t-29.5 -40q0 63 40 97q34 29 91 29q33 0 65 -8zM455 154l-2 90h-286l-41 -60l233 -106zM588 783l-44 -15l-16 90l-142 -90l-8 21l158 111h30z" />
    <glyph glyph-name="Atilde" unicode="&#xc3;" horiz-adv-x="706" 
d="M674 93l-134 -112q-32 20 -54 55.5t-31 76.5l-168 -129l-166 88q-8 5 -23 11t-25 6q-3 0 -9.5 -3t-12.5 -6q-7 -12 -7 -22q0 -7 6 -22t6 -23q0 -12 -10 -20t-21 -8q-13 0 -20 10.5t-7 23.5q0 16 9.5 40.5t30.5 55.5l104 152q-60 55 -84 88q-39 54 -39 112l-3 26
q0 49 21 96t60.5 86t92.5 60t108 21q58 0 119.5 -20.5t112.5 -56.5q31 36 60 55.5t71 28.5l6 -3q-47 -44 -66 -75q-26 -42 -26 -95l10 -392q0 -37 6 -64.5t25 -47.5l38 29zM453 327l-4 253l-22 32h-7l-195 -285h228zM394 635q-31 14 -62.5 20t-62.5 6q-90 0 -150.5 -56.5
t-60.5 -135.5q0 -46 25 -93.5t74 -86.5l152 223q-8 13 -21 20t-29 7q-2 0 -8 -2t-10 -2q-26 -4 -41.5 -17t-29.5 -40q0 63 40 97q34 29 91 29q33 0 65 -8zM455 154l-2 90h-286l-41 -60l233 -106zM504 868q-22 -25 -44 -49q-33 -35 -60 -35q-26 0 -70 28q-10 8 -23 13
q-19 8 -34 8q-22 0 -43 -14q-26 -18 -49 -54l-16 24q40 56 49 66q33 35 70 35q28 0 62 -22q18 -12 25 -16q19 -10 37 -10q19 0 38 9t42 32z" />
    <glyph glyph-name="Adieresis" unicode="&#xc4;" horiz-adv-x="706" 
d="M674 93l-134 -112q-32 20 -54 55.5t-31 76.5l-168 -129l-166 88q-8 5 -23 11t-25 6q-3 0 -9.5 -3t-12.5 -6q-7 -12 -7 -22q0 -7 6 -22t6 -23q0 -12 -10 -20t-21 -8q-13 0 -20 10.5t-7 23.5q0 16 9.5 40.5t30.5 55.5l104 152q-60 55 -84 88q-39 54 -39 112l-3 26
q0 49 21 96t60.5 86t92.5 60t108 21q58 0 119.5 -20.5t112.5 -56.5q31 36 60 55.5t71 28.5l6 -3q-47 -44 -66 -75q-26 -42 -26 -95l10 -392q0 -37 6 -64.5t25 -47.5l38 29zM453 327l-4 253l-22 32h-7l-195 -285h228zM394 635q-31 14 -62.5 20t-62.5 6q-90 0 -150.5 -56.5
t-60.5 -135.5q0 -46 25 -93.5t74 -86.5l152 223q-8 13 -21 20t-29 7q-2 0 -8 -2t-10 -2q-26 -4 -41.5 -17t-29.5 -40q0 63 40 97q34 29 91 29q33 0 65 -8zM455 154l-2 90h-286l-41 -60l233 -106zM616 812l-62 -45q-17 13 -27.5 28.5t-10.5 28.5l62 34zM485 812l-62 -45
q-18 14 -28 27.5t-10 29.5l62 34z" />
    <glyph glyph-name="Aring" unicode="&#xc5;" horiz-adv-x="706" 
d="M674 93l-134 -112q-32 20 -54 55.5t-31 76.5l-168 -129l-166 88q-8 5 -23 11t-25 6q-3 0 -9.5 -3t-12.5 -6q-7 -12 -7 -22q0 -7 6 -22t6 -23q0 -12 -10 -20t-21 -8q-13 0 -20 10.5t-7 23.5q0 16 9.5 40.5t30.5 55.5l104 152q-60 55 -84 88q-39 54 -39 112l-3 26
q0 49 21 96t60.5 86t92.5 60t108 21q58 0 119.5 -20.5t112.5 -56.5q31 36 60 55.5t71 28.5l6 -3q-47 -44 -66 -75q-26 -42 -26 -95l10 -392q0 -37 6 -64.5t25 -47.5l38 29zM453 327l-4 253l-22 32h-7l-195 -285h228zM394 635q-31 14 -62.5 20t-62.5 6q-90 0 -150.5 -56.5
t-60.5 -135.5q0 -46 25 -93.5t74 -86.5l152 223q-8 13 -21 20t-29 7q-2 0 -8 -2t-10 -2q-26 -4 -41.5 -17t-29.5 -40q0 63 40 97q34 29 91 29q33 0 65 -8zM455 154l-2 90h-286l-41 -60l233 -106zM568 812q0 -19 -24 -32.5t-52 -13.5q-22 0 -35 9t-13 28q0 9 5 22
q12 18 24 26.5t24.5 11t20.5 2.5q23 0 36.5 -11t13.5 -42zM509 850q-14 0 -24.5 -14t-10.5 -31q0 -24 24 -27q20 0 31.5 12.5t11.5 29.5q0 14 -7.5 22t-24.5 8z" />
    <glyph glyph-name="AE" unicode="&#xc6;" horiz-adv-x="1180" 
d="M1147 207q-45 -93 -125 -148q-86 -59 -192 -59q-50 0 -100.5 16t-93.5 45l-96 -80q-32 20 -54 55.5t-31 76.5l-168 -129l-166 88q-8 5 -23 11t-25 6q-3 0 -9.5 -3t-12.5 -6q-7 -12 -7 -22q0 -7 6 -22t6 -23q0 -12 -10 -20t-21 -8q-13 0 -20 10.5t-7 23.5q0 16 9.5 40.5
t30.5 55.5l104 152q-60 55 -84 88q-39 54 -39 112l-3 26q0 49 21 96t60.5 86t92.5 60t108 21q58 0 119.5 -20.5t112.5 -56.5q31 36 60 55.5t71 28.5l6 -3q-47 -44 -66 -75q-26 -42 -26 -95q-2 -18 -4 -42.5t-2 -59.5q0 -26 1.5 -54t10.5 -61q25 -92 70 -149q9 17 11.5 36
t2.5 47v276l223 192q50 -35 121 -49q54 -11 131 -11l-162 -173h125q-30 -61 -59 -121h-181l4 -313l37 -3q62 0 124 31q44 22 110 74zM994 596l-132 54v-198zM833 112v560l-47 -41v-215q0 -69 -31 -118q-23 -37 -87 -91q33 -35 76 -59t89 -36zM453 327l-4 253l-22 32h-7
l-195 -285h228zM394 635q-31 14 -62.5 20t-62.5 6q-90 0 -150.5 -56.5t-60.5 -135.5q0 -46 25 -93.5t74 -86.5l152 223q-8 13 -21 20t-29 7q-2 0 -8 -2t-10 -2q-26 -4 -41.5 -17t-29.5 -40q0 63 40 97q34 29 91 29q33 0 65 -8zM455 154l-2 90h-286l-41 -60l233 -106z" />
    <glyph glyph-name="Ccedilla" unicode="&#xc7;" horiz-adv-x="681" 
d="M657 192q-45 -93 -125 -148q-86 -59 -192 -59q-126 0 -224 83q-101 86 -117 217q0 137 55 243q62 120 177 158l3 -4q-66 -53 -103.5 -127t-37.5 -153q0 -101 68 -193q9 17 11.5 36t2.5 47v276l227 192q105 -67 231 -67l-104 -113q-11 4 -60.5 24t-96.5 34v-545
q10 0 23.5 -1.5t30.5 -2.5q73 0 141 45q51 39 81 61zM343 97v560l-47 -41v-215q0 -69 -31 -118q-23 -37 -87 -91q31 -35 73 -59t92 -36zM380 -12l-48 -39q8 -21 8 -40q0 -35 -36 -56q-1 -1 -67 -27l-13 13q19 9 38 17q23 14 23 31q0 8 -4.5 16.5t-15.5 19.5l81 65h34z" />
    <glyph glyph-name="Egrave" unicode="&#xc8;" horiz-adv-x="681" 
d="M657 192q-45 -93 -125 -148q-86 -59 -192 -59q-124 0 -222 82q-103 86 -118 212q-3 27 -3 53q0 123 63 220.5t171 133.5l3 -4q-66 -52 -104 -127t-38 -154q0 -50 17.5 -99.5t51.5 -92.5q9 17 11.5 36t2.5 47v276l223 192q50 -35 121 -49q54 -11 131 -11l-162 -173h125
q-30 -61 -59 -121h-181l4 -313l37 -3q62 0 124 31q44 22 110 74zM504 581l-132 54v-198zM343 97v560l-47 -41v-215q0 -69 -31 -118q-23 -37 -87 -91q33 -35 76 -59t89 -36zM339 747l-42 -12q-58 22 -104.5 47t-85.5 59l78 18q32 -29 73 -59t81 -53z" />
    <glyph glyph-name="Eacute" unicode="&#xc9;" horiz-adv-x="681" 
d="M657 192q-45 -93 -125 -148q-86 -59 -192 -59q-124 0 -222 82q-103 86 -118 212q-3 27 -3 53q0 123 63 220.5t171 133.5l3 -4q-66 -52 -104 -127t-38 -154q0 -50 17.5 -99.5t51.5 -92.5q9 17 11.5 36t2.5 47v276l223 192q50 -35 121 -49q54 -11 131 -11l-162 -173h125
q-30 -61 -59 -121h-181l4 -313l37 -3q62 0 124 31q44 22 110 74zM504 581l-132 54v-198zM343 97v560l-47 -41v-215q0 -69 -31 -118q-23 -37 -87 -91q33 -35 76 -59t89 -36zM720 840q-33 -31 -80.5 -59t-97.5 -48l-39 13q76 47 143 111z" />
    <glyph glyph-name="Ecircumflex" unicode="&#xca;" horiz-adv-x="681" 
d="M657 192q-45 -93 -125 -148q-86 -59 -192 -59q-124 0 -222 82q-103 86 -118 212q-3 27 -3 53q0 123 63 220.5t171 133.5l3 -4q-66 -52 -104 -127t-38 -154q0 -50 17.5 -99.5t51.5 -92.5q9 17 11.5 36t2.5 47v276l223 192q50 -35 121 -49q54 -11 131 -11l-162 -173h125
q-30 -61 -59 -121h-181l4 -313l37 -3q62 0 124 31q44 22 110 74zM504 581l-132 54v-198zM343 97v560l-47 -41v-215q0 -69 -31 -118q-23 -37 -87 -91q33 -35 76 -59t89 -36zM512 764l-46 -16l-16 96l-145 -96l-8 22l161 120h31z" />
    <glyph glyph-name="Edieresis" unicode="&#xcb;" horiz-adv-x="681" 
d="M657 192q-45 -93 -125 -148q-86 -59 -192 -59q-124 0 -222 82q-103 86 -118 212q-3 27 -3 53q0 123 63 220.5t171 133.5l3 -4q-66 -52 -104 -127t-38 -154q0 -50 17.5 -99.5t51.5 -92.5q9 17 11.5 36t2.5 47v276l223 192q50 -35 121 -49q54 -11 131 -11l-162 -173h125
q-30 -61 -59 -121h-181l4 -313l37 -3q62 0 124 31q44 22 110 74zM504 581l-132 54v-198zM343 97v560l-47 -41v-215q0 -69 -31 -118q-23 -37 -87 -91q33 -35 76 -59t89 -36zM523 804l-63 -63q-16 17 -27.5 39.5t-11.5 39.5l63 47zM389 804l-63 -63q-19 20 -29 38t-10 41
l63 47z" />
    <glyph glyph-name="Igrave" unicode="&#xcc;" horiz-adv-x="580" 
d="M543 748q-43 -14 -57.5 -34.5t-14.5 -62.5q0 -34 28 -241q14 -103 14 -160q0 -104 -49 -180q-55 -85 -147 -85q-44 0 -99 18q-118 39 -128 39q-27 0 -48.5 -14.5t-38.5 -46.5l-6 3q0 56 30 99.5t82 50.5q36 1 73.5 2t50.5 30q7 30 7 61q0 61 -20 103q-24 51 -70 51
q-18 0 -39 -4.5t-53 -17.5q11 50 52 76.5t95 26.5q8 82 27.5 128.5t75.5 109.5q-28 -13 -61.5 -20t-54.5 -7q-8 4 -13 5q-17 5 -35 5q-24 0 -50 -11.5t-49 -38.5l-10 2q11 55 49 90t94 35q26 0 68 -8t62 -8q21 0 50 6q28 8 43 11l3 -7q-51 -41 -73.5 -99.5t-22.5 -125.5
q0 -52 14 -150t14 -135q0 -63 -24 -93q-30 -38 -100 -38q37 -41 56 -54q36 -24 89 -24q28 0 40 27.5t12 67.5q0 22 -4 63t-4 51q-2 15 -17 118.5t-15 160.5q0 106 34 164q43 73 140 73v-12zM343 797l-36 -14q-51 25 -87 51q-40 29 -74 68l67 20q32 -37 61.5 -66.5
t68.5 -58.5z" />
    <glyph glyph-name="Iacute" unicode="&#xcd;" horiz-adv-x="580" 
d="M543 748q-43 -14 -57.5 -34.5t-14.5 -62.5q0 -34 28 -241q14 -103 14 -160q0 -104 -49 -180q-55 -85 -147 -85q-44 0 -99 18q-118 39 -128 39q-27 0 -48.5 -14.5t-38.5 -46.5l-6 3q0 56 30 99.5t82 50.5q36 1 73.5 2t50.5 30q7 30 7 61q0 61 -20 103q-24 51 -70 51
q-18 0 -39 -4.5t-53 -17.5q11 50 52 76.5t95 26.5q8 82 27.5 128.5t75.5 109.5q-28 -13 -61.5 -20t-54.5 -7q-8 4 -13 5q-17 5 -35 5q-24 0 -50 -11.5t-49 -38.5l-10 2q11 55 49 90t94 35q26 0 68 -8t62 -8q21 0 50 6q28 8 43 11l3 -7q-51 -41 -73.5 -99.5t-22.5 -125.5
q0 -52 14 -150t14 -135q0 -63 -24 -93q-30 -38 -100 -38q37 -41 56 -54q36 -24 89 -24q28 0 40 27.5t12 67.5q0 22 -4 63t-4 51q-2 15 -17 118.5t-15 160.5q0 106 34 164q43 73 140 73v-12zM622 882q-38 -31 -88 -56.5t-106 -45.5l-43 12q88 49 157 107z" />
    <glyph glyph-name="Icircumflex" unicode="&#xce;" horiz-adv-x="580" 
d="M543 748q-43 -14 -57.5 -34.5t-14.5 -62.5q0 -34 28 -241q14 -103 14 -160q0 -104 -49 -180q-55 -85 -147 -85q-44 0 -99 18q-118 39 -128 39q-27 0 -48.5 -14.5t-38.5 -46.5l-6 3q0 56 30 99.5t82 50.5q36 1 73.5 2t50.5 30q7 30 7 61q0 61 -20 103q-24 51 -70 51
q-18 0 -39 -4.5t-53 -17.5q11 50 52 76.5t95 26.5q8 82 27.5 128.5t75.5 109.5q-28 -13 -61.5 -20t-54.5 -7q-8 4 -13 5q-17 5 -35 5q-24 0 -50 -11.5t-49 -38.5l-10 2q11 55 49 90t94 35q26 0 68 -8t62 -8q21 0 50 6q28 8 43 11l3 -7q-51 -41 -73.5 -99.5t-22.5 -125.5
q0 -52 14 -150t14 -135q0 -63 -24 -93q-30 -38 -100 -38q37 -41 56 -54q36 -24 89 -24q28 0 40 27.5t12 67.5q0 22 -4 63t-4 51q-2 15 -17 118.5t-15 160.5q0 106 34 164q43 73 140 73v-12zM489 787l-47 -14l-16 83l-149 -83l-8 19l165 103h32z" />
    <glyph glyph-name="Idieresis" unicode="&#xcf;" horiz-adv-x="580" 
d="M543 748q-43 -14 -57.5 -34.5t-14.5 -62.5q0 -34 28 -241q14 -103 14 -160q0 -104 -49 -180q-55 -85 -147 -85q-44 0 -99 18q-118 39 -128 39q-27 0 -48.5 -14.5t-38.5 -46.5l-6 3q0 56 30 99.5t82 50.5q36 1 73.5 2t50.5 30q7 30 7 61q0 61 -20 103q-24 51 -70 51
q-18 0 -39 -4.5t-53 -17.5q11 50 52 76.5t95 26.5q8 82 27.5 128.5t75.5 109.5q-28 -13 -61.5 -20t-54.5 -7q-8 4 -13 5q-17 5 -35 5q-24 0 -50 -11.5t-49 -38.5l-10 2q11 55 49 90t94 35q26 0 68 -8t62 -8q21 0 50 6q28 8 43 11l3 -7q-51 -41 -73.5 -99.5t-22.5 -125.5
q0 -52 14 -150t14 -135q0 -63 -24 -93q-30 -38 -100 -38q37 -41 56 -54q36 -24 89 -24q28 0 40 27.5t12 67.5q0 22 -4 63t-4 51q-2 15 -17 118.5t-15 160.5q0 106 34 164q43 73 140 73v-12zM532 828l-66 -51q-40 33 -40 64l65 37zM392 828l-65 -51q-19 16 -30 31.5t-11 32.5
l66 37z" />
    <glyph glyph-name="Eth" unicode="&#xd0;" horiz-adv-x="756" 
d="M733 244q0 -34 -1.5 -71.5t-2.5 -60.5q-49 -21 -98 -55q-42 -29 -89 -70q-73 28 -124.5 40.5t-100.5 12.5q-63 0 -128 -24q-57 -21 -150 -74l-8 16q23 16 108 61q127 68 169 132q4 5 21.5 8t38.5 3q32 0 65 -3q6 0 15 -2l152 -42l1 103q0 53 -6 139q-2 28 -6 76
q-12 101 -42 138q-33 41 -112 41q-58 0 -97.5 -37.5t-39.5 -96.5v-122q6 -31 20 -46q18 -20 48 -17q23 0 47.5 9t37.5 25q-5 -55 -46 -84q-36 -25 -91 -25l-32 3l-4 3q-19 -46 -59 -89q-30 -32 -85 -73q-21 -15 -95 -67l-8 8q66 61 91.5 102.5t25.5 77.5q0 50 -20 71
q-16 17 -45 14q-23 0 -47.5 -9t-37.5 -25q5 55 46 84q36 25 91 25l32 -3q8 92 49 155t121 111q-24 0 -74 -2.5t-61 -2.5q-32 0 -57.5 3t-44.5 12q-40 21 -59 59t-19 86l1 24h8q9 -30 63 -54q18 -8 54 -18q56 0 133 9t119 9h33t39 -3q105 -9 167 -88q52 -66 76 -184
q18 -90 18 -212z" />
    <glyph glyph-name="Ntilde" unicode="&#xd1;" horiz-adv-x="904" 
d="M871 123l-78 -139q-26 6 -56 11t-52 5q-46 0 -80 -18t-62 -63l-11 11q15 71 61 175q66 150 75 174q-46 40 -91 40q-43 0 -112 -40v-125q0 -92 -61.5 -164.5t-150.5 -72.5q-34 0 -76 11q-96 25 -110 25q-29 0 -74 -20l-2 7q20 28 56 51q7 4 72 40q12 6 25 8.5t31 2.5
q14 0 42 -3t42 -3q32 0 46 12q18 16 18 57q0 36 -35 60q-39 27 -107 27h-33q38 50 77 50q25 0 61 -13q-17 55 -66 83q-42 24 -97 24q14 25 33.5 35.5t43.5 10.5q22 0 44.5 -8.5t41.5 -23.5q-14 64 -55 94.5t-108 30.5q21 27 42 38.5t41 11.5t42 -10q10 -5 38 -22v95l281 172
q132 -42 196 -115q58 -67 58 -158q0 -82 -51 -186q-45 -93 -125 -193q39 13 78 13q20 0 44.5 -3.5t60.5 -9.5l19 30zM690 493q-26 69 -88.5 108t-136.5 39v-150q32 -22 60 -33.5t59 -11.5q58 0 106 48zM696 465q-52 -42 -114 -42q-57 0 -117 37v-152q27 14 57 23t56 9
q53 0 101 -32q8 26 14 59t6 60q0 20 -3 38zM437 176v462l-42 -23v-413q0 -69 -14 -108q-19 -52 -70 -81l9 -3q60 0 90 49q26 42 26 108zM780 841q-22 -25 -44 -49q-33 -35 -60 -35q-26 0 -70 28q-10 8 -23 13q-19 8 -34 8q-22 0 -43 -14q-26 -18 -49 -54l-16 24q40 56 49 66
q33 35 70 35q28 0 62 -22q18 -12 25 -16q19 -10 37 -10q19 0 38 9t42 32z" />
    <glyph glyph-name="Ograve" unicode="&#xd2;" horiz-adv-x="782" 
d="M743 518q12 -39 12 -77q0 -85 -54 -175q-45 -74 -121 -141q-67 -61 -145 -98q-88 -42 -166 -42q-111 0 -193.5 100t-82.5 219q0 55 9 107t26 107q99 58 186 116q80 53 181 127q120 -15 211 -72q104 -66 137 -171zM597 513q-38 61 -98 91q-46 23 -130 39v-131
q27 -23 57.5 -35.5t62.5 -12.5q62 0 108 49zM640 384q0 30 -6.5 56.5t-21.5 49.5q-30 -25 -62.5 -37.5t-65.5 -12.5q-58 0 -115 37v-163q32 21 64.5 33t61.5 12q65 0 130 -58q15 41 15 83zM612 269q-25 32 -56 48.5t-63 16.5t-63 -13.5t-61 -41.5v-193q80 7 145 59
q60 48 98 124zM337 86v560h-43v-287q0 -45 -21 -83q-15 -27 -95 -110q40 -38 73 -56q43 -24 86 -24zM189 292v298q-44 -45 -67.5 -102t-23.5 -120q0 -50 15.5 -95t47.5 -84q15 24 21.5 48.5t6.5 54.5zM333 750l-44 -15q-61 26 -107 54q-52 31 -91 70l82 20q74 -74 160 -129z
" />
    <glyph glyph-name="Oacute" unicode="&#xd3;" horiz-adv-x="782" 
d="M743 518q12 -39 12 -77q0 -85 -54 -175q-45 -74 -121 -141q-67 -61 -145 -98q-88 -42 -166 -42q-111 0 -193.5 100t-82.5 219q0 55 9 107t26 107q99 58 186 116q80 53 181 127q120 -15 211 -72q104 -66 137 -171zM597 513q-38 61 -98 91q-46 23 -130 39v-131
q27 -23 57.5 -35.5t62.5 -12.5q62 0 108 49zM640 384q0 30 -6.5 56.5t-21.5 49.5q-30 -25 -62.5 -37.5t-65.5 -12.5q-58 0 -115 37v-163q32 21 64.5 33t61.5 12q65 0 130 -58q15 41 15 83zM612 269q-25 32 -56 48.5t-63 16.5t-63 -13.5t-61 -41.5v-193q80 7 145 59
q60 48 98 124zM337 86v560h-43v-287q0 -45 -21 -83q-15 -27 -95 -110q40 -38 73 -56q43 -24 86 -24zM189 292v298q-44 -45 -67.5 -102t-23.5 -120q0 -50 15.5 -95t47.5 -84q15 24 21.5 48.5t6.5 54.5zM677 884q-36 -36 -85 -67q-45 -28 -101 -52l-41 14q41 27 77.5 57.5
t72.5 67.5z" />
    <glyph glyph-name="Ocircumflex" unicode="&#xd4;" horiz-adv-x="782" 
d="M743 518q12 -39 12 -77q0 -85 -54 -175q-45 -74 -121 -141q-67 -61 -145 -98q-88 -42 -166 -42q-111 0 -193.5 100t-82.5 219q0 55 9 107t26 107q99 58 186 116q80 53 181 127q120 -15 211 -72q104 -66 137 -171zM597 513q-38 61 -98 91q-46 23 -130 39v-131
q27 -23 57.5 -35.5t62.5 -12.5q62 0 108 49zM640 384q0 30 -6.5 56.5t-21.5 49.5q-30 -25 -62.5 -37.5t-65.5 -12.5q-58 0 -115 37v-163q32 21 64.5 33t61.5 12q65 0 130 -58q15 41 15 83zM612 269q-25 32 -56 48.5t-63 16.5t-63 -13.5t-61 -41.5v-193q80 7 145 59
q60 48 98 124zM337 86v560h-43v-287q0 -45 -21 -83q-15 -27 -95 -110q40 -38 73 -56q43 -24 86 -24zM189 292v298q-44 -45 -67.5 -102t-23.5 -120q0 -50 15.5 -95t47.5 -84q15 24 21.5 48.5t6.5 54.5zM550 774l-54 -16l-18 96l-170 -96l-9 22l188 120h36z" />
    <glyph glyph-name="Otilde" unicode="&#xd5;" horiz-adv-x="782" 
d="M743 518q12 -39 12 -77q0 -85 -54 -175q-45 -74 -121 -141q-67 -61 -145 -98q-88 -42 -166 -42q-111 0 -193.5 100t-82.5 219q0 55 9 107t26 107q99 58 186 116q80 53 181 127q120 -15 211 -72q104 -66 137 -171zM597 513q-38 61 -98 91q-46 23 -130 39v-131
q27 -23 57.5 -35.5t62.5 -12.5q62 0 108 49zM640 384q0 30 -6.5 56.5t-21.5 49.5q-30 -25 -62.5 -37.5t-65.5 -12.5q-58 0 -115 37v-163q32 21 64.5 33t61.5 12q65 0 130 -58q15 41 15 83zM612 269q-25 32 -56 48.5t-63 16.5t-63 -13.5t-61 -41.5v-193q80 7 145 59
q60 48 98 124zM337 86v560h-43v-287q0 -45 -21 -83q-15 -27 -95 -110q40 -38 73 -56q43 -24 86 -24zM189 292v298q-44 -45 -67.5 -102t-23.5 -120q0 -50 15.5 -95t47.5 -84q15 24 21.5 48.5t6.5 54.5zM630 840q-22 -25 -44 -49q-33 -35 -60 -35q-26 0 -70 28q-10 8 -23 13
q-19 8 -34 8q-22 0 -43 -14q-26 -18 -49 -54l-16 24q40 56 49 66q33 35 70 35q28 0 62 -22q18 -12 25 -16q19 -10 37 -10q19 0 38 9t42 32z" />
    <glyph glyph-name="Odieresis" unicode="&#xd6;" horiz-adv-x="782" 
d="M743 518q12 -39 12 -77q0 -85 -54 -175q-45 -74 -121 -141q-67 -61 -145 -98q-88 -42 -166 -42q-111 0 -193.5 100t-82.5 219q0 55 9 107t26 107q99 58 186 116q80 53 181 127q120 -15 211 -72q104 -66 137 -171zM597 513q-38 61 -98 91q-46 23 -130 39v-131
q27 -23 57.5 -35.5t62.5 -12.5q62 0 108 49zM640 384q0 30 -6.5 56.5t-21.5 49.5q-30 -25 -62.5 -37.5t-65.5 -12.5q-58 0 -115 37v-163q32 21 64.5 33t61.5 12q65 0 130 -58q15 41 15 83zM612 269q-25 32 -56 48.5t-63 16.5t-63 -13.5t-61 -41.5v-193q80 7 145 59
q60 48 98 124zM337 86v560h-43v-287q0 -45 -21 -83q-15 -27 -95 -110q40 -38 73 -56q43 -24 86 -24zM189 292v298q-44 -45 -67.5 -102t-23.5 -120q0 -50 15.5 -95t47.5 -84q15 24 21.5 48.5t6.5 54.5zM512 814l-63 -48q-17 13 -28 30t-11 30l63 36zM378 814l-63 -48
q-19 15 -29 28.5t-10 31.5l63 36z" />
    <glyph glyph-name="multiply" unicode="&#xd7;" horiz-adv-x="672" 
d="M581 539l-14 -57l-56 -14l-134 -134l137 -136l49 -8l16 -59l-54 -54l-61 7l-3 60l-137 137l-138 -139l-8 -49l-59 -16l-54 54l7 61l60 3l139 139l-136 136l-60 10l-12 59l54 54l57 -14l14 -56l136 -136l134 134l10 60l59 12z" />
    <glyph glyph-name="Oslash" unicode="&#xd8;" horiz-adv-x="782" 
d="M743 518q12 -39 12 -77q0 -85 -54 -175q-45 -74 -121 -141q-67 -61 -145 -98q-88 -42 -166 -42q-46 0 -93 21l-52 -69h-77l82 97q-61 46 -98.5 120t-37.5 150q0 55 9 107t26 107q99 58 186 116q80 53 181 127q61 -8 110.5 -24t97.5 -46l60 73l61 -10l-72 -99
q32 -27 55.5 -61.5t35.5 -75.5zM597 513q-38 61 -98 91q-46 23 -130 39v-131q27 -23 57.5 -35.5t62.5 -12.5q62 0 108 49zM640 384q0 30 -6.5 56.5t-21.5 49.5q-30 -25 -62.5 -37.5t-65.5 -12.5q-58 0 -115 37v-163q32 21 64.5 33t61.5 12q65 0 130 -58q15 41 15 83z
M612 269q-25 32 -56 48.5t-63 16.5t-63 -13.5t-61 -41.5v-193q80 7 145 59q60 48 98 124zM337 86v560h-43v-287q0 -45 -21 -83q-15 -27 -95 -110q40 -38 73 -56q43 -24 86 -24zM189 292v298q-44 -45 -67.5 -102t-23.5 -120q0 -50 15.5 -95t47.5 -84q15 24 21.5 48.5
t6.5 54.5z" />
    <glyph glyph-name="Ugrave" unicode="&#xd9;" horiz-adv-x="855" 
d="M831 89l-105 -105h-24q-34 30 -51 62.5t-26 81.5q-64 -66 -126 -100q-78 -43 -159 -43q-116 0 -205.5 92.5t-89.5 208.5q0 123 87 231q76 95 204 160q-34 -9 -51.5 -10.5t-59.5 -1.5q-18 0 -35 1l-34 2q-46 0 -75 -19q-40 -26 -76 -97l-14 -4q0 87 36 144q43 68 126 68
q30 0 93.5 -14.5t90.5 -14.5q25 0 47 6.5t42 22.5h29v-279q45 -24 86 -24q40 0 84 24v135l-50 35l-40 -45l-17 17l117 137l105 -70l56 47l12 -9q-23 -28 -35.5 -56t-12.5 -60v-461q0 -30 3 -45.5t16 -32.5l39 35zM625 333v120q-43 -20 -85 -20t-85 20v-120q44 19 83 19
q40 0 87 -19zM625 164v144q-41 20 -84 20q-41 0 -86 -20v-208q48 5 86 19.5t84 44.5zM426 97v622q-44 -44 -44 -110v-237q0 -72 -33 -127t-96 -95q41 -31 79 -42t94 -11zM372 673q-94 -53 -148 -136.5t-54 -182.5q0 -106 64 -188q23 23 32.5 53.5t9.5 67.5l-1 190
q0 59 26 107q22 41 71 89zM570 763l-43 -15q-59 26 -105 55q-49 32 -89 73l80 21q70 -75 157 -134z" />
    <glyph glyph-name="Uacute" unicode="&#xda;" horiz-adv-x="855" 
d="M831 89l-105 -105h-24q-34 30 -51 62.5t-26 81.5q-64 -66 -126 -100q-78 -43 -159 -43q-116 0 -205.5 92.5t-89.5 208.5q0 123 87 231q76 95 204 160q-34 -9 -51.5 -10.5t-59.5 -1.5q-18 0 -35 1l-34 2q-46 0 -75 -19q-40 -26 -76 -97l-14 -4q0 87 36 144q43 68 126 68
q30 0 93.5 -14.5t90.5 -14.5q25 0 47 6.5t42 22.5h29v-279q45 -24 86 -24q40 0 84 24v135l-50 35l-40 -45l-17 17l117 137l105 -70l56 47l12 -9q-23 -28 -35.5 -56t-12.5 -60v-461q0 -30 3 -45.5t16 -32.5l39 35zM625 333v120q-43 -20 -85 -20t-85 20v-120q44 19 83 19
q40 0 87 -19zM625 164v144q-41 20 -84 20q-41 0 -86 -20v-208q48 5 86 19.5t84 44.5zM426 97v622q-44 -44 -44 -110v-237q0 -72 -33 -127t-96 -95q41 -31 79 -42t94 -11zM372 673q-94 -53 -148 -136.5t-54 -182.5q0 -106 64 -188q23 23 32.5 53.5t9.5 67.5l-1 190
q0 59 26 107q22 41 71 89zM757 892q-39 -32 -90.5 -59t-111.5 -48l-45 13q88 48 164 111z" />
    <glyph glyph-name="Ucircumflex" unicode="&#xdb;" horiz-adv-x="855" 
d="M831 89l-105 -105h-24q-34 30 -51 62.5t-26 81.5q-64 -66 -126 -100q-78 -43 -159 -43q-116 0 -205.5 92.5t-89.5 208.5q0 123 87 231q76 95 204 160q-34 -9 -51.5 -10.5t-59.5 -1.5q-18 0 -35 1l-34 2q-46 0 -75 -19q-40 -26 -76 -97l-14 -4q0 87 36 144q43 68 126 68
q30 0 93.5 -14.5t90.5 -14.5q25 0 47 6.5t42 22.5h29v-279q45 -24 86 -24q40 0 84 24v135l-50 35l-40 -45l-17 17l117 137l105 -70l56 47l12 -9q-23 -28 -35.5 -56t-12.5 -60v-461q0 -30 3 -45.5t16 -32.5l39 35zM625 333v120q-43 -20 -85 -20t-85 20v-120q44 19 83 19
q40 0 87 -19zM625 164v144q-41 20 -84 20q-41 0 -86 -20v-208q48 5 86 19.5t84 44.5zM426 97v622q-44 -44 -44 -110v-237q0 -72 -33 -127t-96 -95q41 -31 79 -42t94 -11zM372 673q-94 -53 -148 -136.5t-54 -182.5q0 -106 64 -188q23 23 32.5 53.5t9.5 67.5l-1 190
q0 59 26 107q22 41 71 89zM605 776l-55 -18l-19 104l-176 -104l-10 24l195 128h38z" />
    <glyph glyph-name="Udieresis" unicode="&#xdc;" horiz-adv-x="855" 
d="M831 89l-105 -105h-24q-34 30 -51 62.5t-26 81.5q-64 -66 -126 -100q-78 -43 -159 -43q-116 0 -205.5 92.5t-89.5 208.5q0 123 87 231q76 95 204 160q-34 -9 -51.5 -10.5t-59.5 -1.5q-18 0 -35 1l-34 2q-46 0 -75 -19q-40 -26 -76 -97l-14 -4q0 87 36 144q43 68 126 68
q30 0 93.5 -14.5t90.5 -14.5q25 0 47 6.5t42 22.5h29v-279q45 -24 86 -24q40 0 84 24v135l-50 35l-40 -45l-17 17l117 137l105 -70l56 47l12 -9q-23 -28 -35.5 -56t-12.5 -60v-461q0 -30 3 -45.5t16 -32.5l39 35zM625 333v120q-43 -20 -85 -20t-85 20v-120q44 19 83 19
q40 0 87 -19zM625 164v144q-41 20 -84 20q-41 0 -86 -20v-208q48 5 86 19.5t84 44.5zM426 97v622q-44 -44 -44 -110v-237q0 -72 -33 -127t-96 -95q41 -31 79 -42t94 -11zM372 673q-94 -53 -148 -136.5t-54 -182.5q0 -106 64 -188q23 23 32.5 53.5t9.5 67.5l-1 190
q0 59 26 107q22 41 71 89zM655 826l-62 -45q-17 13 -27.5 28.5t-10.5 28.5l62 34zM524 826l-62 -45q-18 14 -28 27.5t-10 29.5l62 34z" />
    <glyph glyph-name="Yacute" unicode="&#xdd;" horiz-adv-x="731" 
d="M712 448q0 -146 -77 -234q-84 -96 -240 -96h-197q-70 0 -114 -23q-58 -30 -58 -93q0 -48 34 -73q30 -22 80 -22h16q7 1 10 1q93 36 155.5 59t105.5 23q58 0 88.5 -28t30.5 -68q0 -22 -11.5 -38.5t-30.5 -16.5q-20 0 -32.5 15.5t-12.5 39.5q0 9 1 13q3 7 6.5 15.5
t3.5 14.5q0 14 -21 14q-4 0 -16 -2q-71 -36 -146.5 -74t-123.5 -38q-72 0 -117.5 49.5t-45.5 113.5q0 58 40 99q47 48 130 48q1 6 1 11v12q0 61 -33.5 110.5t-92.5 76.5v9q33 -3 51 -5q53 -7 74 -17v12q0 62 -30 100q-26 33 -92 62v7q24 6 48 6q18 0 36.5 -3.5t37.5 -9.5
q1 7 2 21.5t1 23.5q0 83 -33 123q-29 35 -80 35h-9v11q47 24 96 24q52 0 91.5 -28t55.5 -82q57 40 97 59q58 27 110 27q98 0 158 -94q53 -83 53 -190zM567 518q-12 69 -43 108q-35 44 -88 44q-15 0 -32.5 -4t-34.5 -11v-143q48 -36 95 -36q26 0 51.5 11t51.5 31zM575 414v47
q-3 22 -4 32q-55 -40 -112 -40q-47 0 -90 28v-144q41 28 90 28q27 0 54.5 -8.5t56.5 -25.5q3 17 4 37t1 46zM564 304q-52 40 -104 40q-47 0 -91 -33v-169q69 0 123 45t72 117zM340 142v498l-49 -24v-474h49zM541 858q-36 -34 -85 -63t-105 -52l-42 14q83 52 154 120z" />
    <glyph glyph-name="Thorn" unicode="&#xde;" 
d="M395 226q-35 -19 -71 -50q-21 -18 -65 -61q-16 10 -32 19q-29 15 -57 30l-3 -101q0 -48 10 -75.5t48 -78.5q-43 5 -68 23q-16 11 -52 54q-25 -26 -40 -36q-23 -15 -49 -15q30 35 38.5 59.5t8.5 60.5v135q-4 2 -14 2t-16 1h-28v42q29 13 58 19v268v14q0 48 -4 85.5
t-17 45.5l-27 -19l-17 14l95 93q33 -17 55 -87q16 -49 23 -111q38 38 56 57q31 32 52 61q59 -20 89 -72q27 -47 27 -113v-264zM291 210v307q0 18 -18.5 36.5t-38.5 26.5l-63 -62v-267q30 -8 59 -18q19 -6 61 -23z" />
    <glyph glyph-name="germandbls" unicode="&#xdf;" horiz-adv-x="753" 
d="M723 112q-85 -18 -155 -50q-44 -20 -142 -78q-3 3 -27 44q-15 26 -54 26q-38 0 -51 -10t-51 -66q0 53 44 107q40 50 68 50q46 0 96 -12l84 -30q13 8 27.5 14.5t29.5 13.5v160q0 66 -83 94q-27 9 -83 15q64 5 113 73q43 60 43 112q0 47 -21 87q-26 50 -73 50
q-45 0 -83 -37q-16 -15 -61 -68q29 65 54.5 92.5t85.5 54.5q21 9 47 15.5t47 6.5q35 0 62.5 -17t42 -46t14.5 -64q0 -40 -18 -75q-17 -28 -75 -85l-82 -80q71 -7 131 -48q70 -48 70 -112v-137zM429 763q-87 -48 -118 -95q-36 -53 -36 -148v-181q0 -87 -18 -141.5t-73 -124.5
q-33 0 -72 -44t-39 -68q0 -9 4 -23q9 -31 9 -40q0 -19 -22 -19q-15 0 -28 10t-13 25q0 18 11 41.5t21 37.5q32 36 64 73q38 47 45 88v10q-5 7 -8 10q-12 11 -28 11q-12 0 -26.5 -6.5t-31.5 -21.5q-1 4 -1 13q0 37 47 73q15 12 48 29q6 8 6 19q0 21 -15.5 44.5t-33 31
t-40.5 7.5q-18 0 -39.5 -6t-39.5 -14q9 49 50 77t92 28q0 70 27 118t86 96q-43 -15 -64 -15q-13 0 -71 19q-30 10 -49 10q-21 0 -39 -12.5t-34 -36.5q7 57 45.5 97.5t95.5 40.5q28 0 82 -16t81 -16h7q24 0 55 8.5t60 17.5z" />
    <glyph glyph-name="agrave" unicode="&#xe0;" 
d="M402 81l-99 -90q-69 41 -69 130l-145 -130h-9q-38 38 -56 69q-24 41 -24 87q0 60 31 116q26 47 77 96l-53 151l17 -1q66 0 112 46l155 -55l33 25l6 -7q-15 -25 -24.5 -46.5t-14.5 -45.5v-308q4 -12 10.5 -21t16.5 -13l19 13zM234 303v127l-153 60l45 -128zM234 154v125
l-109 60q-14 -27 -23 -56t-9 -55q0 -81 60 -147zM248 630l-43 -19q-60 33 -105 70q-49 40 -89 92l80 27q72 -96 157 -170z" />
    <glyph glyph-name="aacute" unicode="&#xe1;" 
d="M402 81l-99 -90q-69 41 -69 130l-145 -130h-9q-38 38 -56 69q-24 41 -24 87q0 60 31 116q26 47 77 96l-53 151l17 -1q66 0 112 46l155 -55l33 25l6 -7q-15 -25 -24.5 -46.5t-14.5 -45.5v-308q4 -12 10.5 -21t16.5 -13l19 13zM234 303v127l-153 60l45 -128zM234 154v125
l-109 60q-14 -27 -23 -56t-9 -55q0 -81 60 -147zM425 771q-37 -48 -89 -91q-48 -39 -105 -71l-43 19q85 74 157 170z" />
    <glyph glyph-name="acircumflex" unicode="&#xe2;" 
d="M402 81l-99 -90q-69 41 -69 130l-145 -130h-9q-38 38 -56 69q-24 41 -24 87q0 60 31 116q26 47 77 96l-53 151l17 -1q66 0 112 46l155 -55l33 25l6 -7q-15 -25 -24.5 -46.5t-14.5 -45.5v-308q4 -12 10.5 -21t16.5 -13l19 13zM234 303v127l-153 60l45 -128zM234 154v125
l-109 60q-14 -27 -23 -56t-9 -55q0 -81 60 -147zM365 627l-47 -23l-16 134l-149 -134l-8 31l165 166h32z" />
    <glyph glyph-name="atilde" unicode="&#xe3;" 
d="M402 81l-99 -90q-69 41 -69 130l-145 -130h-9q-38 38 -56 69q-24 41 -24 87q0 60 31 116q26 47 77 96l-53 151l17 -1q66 0 112 46l155 -55l33 25l6 -7q-15 -25 -24.5 -46.5t-14.5 -45.5v-308q4 -12 10.5 -21t16.5 -13l19 13zM234 303v127l-153 60l45 -128zM234 154v125
l-109 60q-14 -27 -23 -56t-9 -55q0 -81 60 -147zM406 691q-22 -25 -44 -49q-33 -35 -60 -35q-26 0 -70 28q-10 8 -23 13q-19 8 -34 8q-22 0 -43 -14q-26 -18 -49 -54l-16 24q40 56 49 66q33 35 70 35q28 0 62 -22q18 -12 25 -16q19 -10 37 -10q19 0 38 9t42 32z" />
    <glyph glyph-name="adieresis" unicode="&#xe4;" 
d="M402 81l-99 -90q-69 41 -69 130l-145 -130h-9q-38 38 -56 69q-24 41 -24 87q0 60 31 116q26 47 77 96l-53 151l17 -1q66 0 112 46l155 -55l33 25l6 -7q-15 -25 -24.5 -46.5t-14.5 -45.5v-308q4 -12 10.5 -21t16.5 -13l19 13zM234 303v127l-153 60l45 -128zM234 154v125
l-109 60q-14 -27 -23 -56t-9 -55q0 -81 60 -147zM341 662l-63 -63q-16 17 -27.5 39.5t-11.5 39.5l63 47zM207 662l-63 -63q-19 20 -29 38t-10 41l63 47z" />
    <glyph glyph-name="aring" unicode="&#xe5;" 
d="M402 81l-99 -90q-69 41 -69 130l-145 -130h-9q-38 38 -56 69q-24 41 -24 87q0 60 31 116q26 47 77 96l-53 151l17 -1q66 0 112 46l155 -55l33 25l6 -7q-15 -25 -24.5 -46.5t-14.5 -45.5v-308q4 -12 10.5 -21t16.5 -13l19 13zM234 303v127l-153 60l45 -128zM234 154v125
l-109 60q-14 -27 -23 -56t-9 -55q0 -81 60 -147zM307 663q0 -31 -27 -51.5t-58 -20.5q-24 0 -40 13t-16 40q0 16 5 31q13 25 26.5 37.5t29.5 18.5q14 2 22 2q25 0 39 -13q19 -18 19 -57zM239 712q-16 0 -28 -20.5t-12 -44.5q0 -16 6.5 -27t21.5 -13q22 -2 35 17t13 45
q0 21 -8.5 33t-27.5 10z" />
    <glyph glyph-name="ae" unicode="&#xe6;" horiz-adv-x="585" 
d="M558 397q-52 -39 -96 -75q-52 -43 -94 -81v-118l87 -42l73 50l17 -19q-44 -31 -83 -60q-52 -41 -78 -61q-20 13 -29 16.5t-19 3.5h-11l-22 -20q-69 41 -69 130l-145 -130h-9q-38 38 -56 69q-24 41 -24 87q0 60 31 116q26 47 77 96l-53 151l17 -1q66 0 112 46l150 -53
q42 25 79 53zM464 359l-100 112v-198zM234 303v127l-153 60l45 -128zM234 154v125l-109 60q-14 -27 -23 -56t-9 -55q0 -81 60 -147z" />
    <glyph glyph-name="ccedilla" unicode="&#xe7;" horiz-adv-x="331" 
d="M294 103q-69 -56 -137 -112q-45 34 -73 50q-40 22 -84 29q18 16 25.5 38t7.5 49v303q41 20 73.5 42t63.5 53l116 -78l-52 -79l-95 64v-332l92 -49l47 40zM172 3l-39 -31q7 -18 7 -32q0 -29 -31 -46q-39 -16 -55 -22l-12 10l32 14q20 11 20 26q0 12 -17 29l67 52h28z" />
    <glyph glyph-name="egrave" unicode="&#xe8;" horiz-adv-x="356" 
d="M328 397q-52 -39 -96 -75q-52 -43 -94 -81v-118l87 -42l73 50l17 -19q-44 -31 -83 -60q-52 -41 -78 -61q-40 25 -75 40t-81 25q18 17 25.5 38t7.5 48v318q72 37 152 95zM234 359l-100 112v-198zM238 630l-43 -19q-60 33 -105 70q-49 40 -89 92l80 27q72 -96 157 -170z
" />
    <glyph glyph-name="eacute" unicode="&#xe9;" horiz-adv-x="356" 
d="M328 397q-52 -39 -96 -75q-52 -43 -94 -81v-118l87 -42l73 50l17 -19q-44 -31 -83 -60q-52 -41 -78 -61q-40 25 -75 40t-81 25q18 17 25.5 38t7.5 48v318q72 37 152 95zM234 359l-100 112v-198zM363 771q-37 -48 -89 -91q-48 -39 -105 -71l-43 19q85 74 157 170z" />
    <glyph glyph-name="ecircumflex" unicode="&#xea;" horiz-adv-x="356" 
d="M328 397q-52 -39 -96 -75q-52 -43 -94 -81v-118l87 -42l73 50l17 -19q-44 -31 -83 -60q-52 -41 -78 -61q-40 25 -75 40t-81 25q18 17 25.5 38t7.5 48v318q72 37 152 95zM234 359l-100 112v-198zM303 627l-47 -23l-16 134l-149 -134l-8 31l165 166h32z" />
    <glyph glyph-name="edieresis" unicode="&#xeb;" horiz-adv-x="356" 
d="M328 397q-52 -39 -96 -75q-52 -43 -94 -81v-118l87 -42l73 50l17 -19q-44 -31 -83 -60q-52 -41 -78 -61q-40 25 -75 40t-81 25q18 17 25.5 38t7.5 48v318q72 37 152 95zM234 359l-100 112v-198zM281 670l-63 -63q-16 17 -27.5 39.5t-11.5 39.5l63 47zM147 670l-63 -63
q-19 20 -29 38t-10 41l63 47z" />
    <glyph glyph-name="igrave" unicode="&#xec;" horiz-adv-x="233" 
d="M205 80l-105 -93q-39 23 -56.5 54t-17.5 72l2 21v306l-33 38l86 77l89 -80l-29 -35v-325q2 -10 8 -18.5t18 -15.5l19 16zM159 632l-43 -19q-60 33 -105 70q-49 40 -89 92l80 27q72 -96 157 -170z" />
    <glyph glyph-name="iacute" unicode="&#xed;" horiz-adv-x="233" 
d="M205 80l-105 -93q-39 23 -56.5 54t-17.5 72l2 21v306l-33 38l86 77l89 -80l-29 -35v-325q2 -10 8 -18.5t18 -15.5l19 16zM247 771q-37 -48 -89 -91q-48 -39 -105 -71l-43 19q85 74 157 170z" />
    <glyph glyph-name="icircumflex" unicode="&#xee;" horiz-adv-x="233" 
d="M205 80l-105 -93q-39 23 -56.5 54t-17.5 72l2 21v306l-33 38l86 77l89 -80l-29 -35v-325q2 -10 8 -18.5t18 -15.5l19 16zM199 627l-47 -23l-16 134l-149 -134l-8 31l165 166h32z" />
    <glyph glyph-name="idieresis" unicode="&#xef;" horiz-adv-x="233" 
d="M205 80l-105 -93q-39 23 -56.5 54t-17.5 72l2 21v306l-33 38l86 77l89 -80l-29 -35v-325q2 -10 8 -18.5t18 -15.5l19 16zM202 670l-63 -63q-16 17 -27.5 39.5t-11.5 39.5l63 47zM68 670l-63 -63q-19 20 -29 38t-10 41l63 47z" />
    <glyph glyph-name="eth" unicode="&#xf0;" 
d="M392 520q-10 -20 -10 -49v-391q-49 -16 -88.5 -37.5t-76.5 -55.5q-41 35 -93.5 60t-107.5 37q20 20 26 39.5t6 52.5v286q24 5 47.5 15.5t48.5 26.5l-135 93v121l116 -81l43 75l75 -56l-41 -72l142 -99q9 14 20.5 24.5t26.5 15.5zM276 86v328l-87 61l-32 -22v-319z" />
    <glyph glyph-name="ntilde" unicode="&#xf1;" horiz-adv-x="483" 
d="M451 80l-102 -93q-41 28 -55.5 60.5t-14.5 86.5v280l-46 45l-73 -61v-290l29 -40l-83 -81l-86 81l30 37v302q0 31 -22 52l-18 -16l-15 19l94 93q39 -25 52.5 -50t18.5 -78q28 23 53 45q34 30 85 80l75 -77l46 43l17 -18q-27 -36 -51 -76v-309q6 -10 8 -13q9 -13 21 -21
l22 16zM396 706q-22 -25 -44 -49q-33 -35 -60 -35q-26 0 -70 28q-10 8 -23 13q-19 8 -34 8q-22 0 -43 -14q-26 -18 -49 -54l-16 24q40 56 49 66q33 35 70 35q28 0 62 -22q18 -12 25 -16q19 -10 37 -10q19 0 38 9t42 32z" />
    <glyph glyph-name="ograve" unicode="&#xf2;" horiz-adv-x="406" 
d="M370 80q-50 -16 -90.5 -38t-74.5 -55q-87 72 -203 97q21 19 27 39t6 53v284q46 13 84.5 36.5t73.5 58.5q53 -36 83 -52q48 -25 94 -32v-391zM262 86v321l-121 53v-322q27 -13 59 -26.5t62 -25.5zM259 630l-43 -19q-60 33 -105 70q-49 40 -89 92l80 27q72 -96 157 -170z
" />
    <glyph glyph-name="oacute" unicode="&#xf3;" horiz-adv-x="406" 
d="M370 80q-50 -16 -90.5 -38t-74.5 -55q-87 72 -203 97q21 19 27 39t6 53v284q46 13 84.5 36.5t73.5 58.5q53 -36 83 -52q48 -25 94 -32v-391zM262 86v321l-121 53v-322q27 -13 59 -26.5t62 -25.5zM376 771q-37 -48 -89 -91q-48 -39 -105 -71l-43 19q85 74 157 170z" />
    <glyph glyph-name="ocircumflex" unicode="&#xf4;" horiz-adv-x="406" 
d="M370 80q-50 -16 -90.5 -38t-74.5 -55q-87 72 -203 97q21 19 27 39t6 53v284q46 13 84.5 36.5t73.5 58.5q53 -36 83 -52q48 -25 94 -32v-391zM262 86v321l-121 53v-322q27 -13 59 -26.5t62 -25.5zM306 627l-47 -23l-16 134l-149 -134l-8 31l165 166h32z" />
    <glyph glyph-name="otilde" unicode="&#xf5;" horiz-adv-x="406" 
d="M370 80q-50 -16 -90.5 -38t-74.5 -55q-87 72 -203 97q21 19 27 39t6 53v284q46 13 84.5 36.5t73.5 58.5q53 -36 83 -52q48 -25 94 -32v-391zM262 86v321l-121 53v-322q27 -13 59 -26.5t62 -25.5zM400 691q-22 -25 -44 -49q-33 -35 -60 -35q-26 0 -70 28q-10 8 -23 13
q-19 8 -34 8q-22 0 -43 -14q-26 -18 -49 -54l-16 24q40 56 49 66q33 35 70 35q28 0 62 -22q18 -12 25 -16q19 -10 37 -10q19 0 38 9t42 32z" />
    <glyph glyph-name="odieresis" unicode="&#xf6;" horiz-adv-x="406" 
d="M370 80q-50 -16 -90.5 -38t-74.5 -55q-87 72 -203 97q21 19 27 39t6 53v284q46 13 84.5 36.5t73.5 58.5q53 -36 83 -52q48 -25 94 -32v-391zM262 86v321l-121 53v-322q27 -13 59 -26.5t62 -25.5zM330 680l-63 -63q-16 17 -27.5 39.5t-11.5 39.5l63 47zM196 680l-63 -63
q-19 20 -29 38t-10 41l63 47z" />
    <glyph glyph-name="divide" unicode="&#xf7;" horiz-adv-x="672" 
d="M400 492l-93 -86q-46 42 -82 91l91 88q18 -23 39.5 -46.5t44.5 -46.5zM650 296l-50 -31l-50 30h-460l-40 -30l-53 31v76l48 38l45 -40h460l50 35l50 -33v-76zM400 161l-93 -85q-24 21 -43 41q-22 24 -39 48l91 87q42 -53 84 -91z" />
    <glyph glyph-name="oslash" unicode="&#xf8;" horiz-adv-x="406" 
d="M377 593l-54 -110q22 -9 47 -12v-391q-50 -16 -90.5 -38t-74.5 -55q-39 32 -83 55l-39 -88h-62l50 110q-15 5 -32.5 10.5t-36.5 9.5q21 19 27 39t6 53v284q46 13 84.5 36.5t73.5 58.5q30 -20 37 -25q17 -11 40 -24l39 87h68zM231 420l-90 40v-240zM262 86v267l-101 -224
q22 -10 48.5 -21.5t52.5 -21.5z" />
    <glyph glyph-name="ugrave" unicode="&#xf9;" horiz-adv-x="483" 
d="M453 80l-103 -93q-37 27 -53 55.5t-16 72.5l-155 -124q-33 22 -52 61.5t-19 81.5v309l-17 19l-25 -19l-16 19l109 93l89 -74l-34 -32v-311q0 -18 9 -30t26 -24l85 67v292l-28 38l83 74l84 -74l-32 -32v-334q0 -8 8.5 -17.5t20.5 -16.5l20 16zM253 630l-43 -19
q-60 33 -105 70q-49 40 -89 92l80 27q72 -96 157 -170z" />
    <glyph glyph-name="uacute" unicode="&#xfa;" horiz-adv-x="483" 
d="M453 80l-103 -93q-37 27 -53 55.5t-16 72.5l-155 -124q-33 22 -52 61.5t-19 81.5v309l-17 19l-25 -19l-16 19l109 93l89 -74l-34 -32v-311q0 -18 9 -30t26 -24l85 67v292l-28 38l83 74l84 -74l-32 -32v-334q0 -8 8.5 -17.5t20.5 -16.5l20 16zM431 771q-37 -48 -89 -91
q-48 -39 -105 -71l-43 19q85 74 157 170z" />
    <glyph glyph-name="ucircumflex" unicode="&#xfb;" horiz-adv-x="483" 
d="M453 80l-103 -93q-37 27 -53 55.5t-16 72.5l-155 -124q-33 22 -52 61.5t-19 81.5v309l-17 19l-25 -19l-16 19l109 93l89 -74l-34 -32v-311q0 -18 9 -30t26 -24l85 67v292l-28 38l83 74l84 -74l-32 -32v-334q0 -8 8.5 -17.5t20.5 -16.5l20 16zM340 625l-47 -23l-16 134
l-149 -134l-8 31l165 166h32z" />
    <glyph glyph-name="udieresis" unicode="&#xfc;" horiz-adv-x="483" 
d="M453 80l-103 -93q-37 27 -53 55.5t-16 72.5l-155 -124q-33 22 -52 61.5t-19 81.5v309l-17 19l-25 -19l-16 19l109 93l89 -74l-34 -32v-311q0 -18 9 -30t26 -24l85 67v292l-28 38l83 74l84 -74l-32 -32v-334q0 -8 8.5 -17.5t20.5 -16.5l20 16zM352 672l-63 -63
q-16 17 -27.5 39.5t-11.5 39.5l63 47zM218 672l-63 -63q-19 20 -29 38t-10 41l63 47z" />
    <glyph glyph-name="yacute" unicode="&#xfd;" 
d="M402 362q0 -91 -64 -167q-50 -59 -143 -115q-86 -48 -99 -57q-74 -51 -74 -91l1 -5q0 -28 24.5 -43t57.5 -15q20 0 36 4t29 15q18 16 21 18q17 13 27 13t16 -11q1 -2 2 -11q0 -24 -48 -43q-39 -15 -63 -15h-17q-43 0 -73 15q-39 19 -42 56v10q0 38 44 97t44 79v311
q0 20 -9 35q-2 4 -14 18l-35 -30l-18 21l110 104q39 -22 55 -52.5t16 -78.5l147 130q34 -39 51.5 -88.5t17.5 -103.5zM303 331q0 33 -11.5 65t-35.5 57l-70 -61v-286q50 40 83.5 101.5t33.5 123.5zM429 771q-37 -48 -89 -91q-48 -39 -105 -71l-43 19q85 74 157 170z" />
    <glyph glyph-name="thorn" unicode="&#xfe;" 
d="M395 76q-35 -19 -71 -50q-21 -18 -65 -61q-16 10 -32 19q-29 15 -57 30l-3 -41q0 -48 10 -75.5t48 -78.5q-43 5 -68 23q-16 11 -52 54q-25 -26 -40 -36q-23 -15 -49 -15q30 35 38.5 59.5t8.5 60.5v75q-4 2 -14 2t-16 1h-28v42q29 13 58 19v268v16q0 68 -3 108
q-6 73 -18 81l-27 -19l-17 14l95 93q32 -16 55 -117q13 -56 23 -141q38 38 56 57q31 32 52 61q59 -20 89 -72q27 -47 27 -113v-264zM291 60v307q0 18 -18.5 36.5t-38.5 26.5l-63 -62v-267q30 -8 59 -18q19 -6 61 -23z" />
    <glyph glyph-name="ydieresis" unicode="&#xff;" 
d="M402 362q0 -91 -64 -167q-50 -59 -143 -115q-86 -48 -99 -57q-74 -51 -74 -91l1 -5q0 -28 24.5 -43t57.5 -15q20 0 36 4t29 15q18 16 21 18q17 13 27 13t16 -11q1 -2 2 -11q0 -24 -48 -43q-39 -15 -63 -15h-17q-43 0 -73 15q-39 19 -42 56v10q0 38 44 97t44 79v311
q0 20 -9 35q-2 4 -14 18l-35 -30l-18 21l110 104q39 -22 55 -52.5t16 -78.5l147 130q34 -39 51.5 -88.5t17.5 -103.5zM303 331q0 33 -11.5 65t-35.5 57l-70 -61v-286q50 40 83.5 101.5t33.5 123.5zM337 675l-63 -63q-16 17 -27.5 39.5t-11.5 39.5l63 47zM203 675l-63 -63
q-19 20 -29 38t-10 41l63 47z" />
    <glyph glyph-name="dotlessi" unicode="&#x131;" horiz-adv-x="233" 
d="M205 80l-105 -93q-39 23 -56.5 54t-17.5 72l2 21v306l-33 38l86 77l89 -80l-29 -35v-325q2 -10 8 -18.5t18 -15.5l19 16z" />
    <glyph glyph-name="OE" unicode="&#x152;" horiz-adv-x="1317" 
d="M1304 192q-45 -93 -125 -148q-86 -59 -192 -59t-197 62.5t-127 164.5q-21 -26 -40.5 -46.5t-42.5 -40.5q-67 -61 -145 -98q-88 -42 -166 -42q-111 0 -193.5 100t-82.5 219q0 55 9 107t26 107q99 58 186 116q80 53 181 127q106 -13 187 -57q92 -50 138 -133q60 82 158 115
l3 -4q-66 -52 -104 -127t-38 -154q0 -50 17.5 -99.5t51.5 -92.5q9 17 11.5 36t2.5 47v276l223 192q50 -35 121 -49q54 -11 131 -11l-162 -173h125q-30 -61 -59 -121h-181l4 -313l37 -3q62 0 124 31q44 22 110 74zM1151 581l-132 54v-198zM990 97v560l-47 -41v-215
q0 -69 -31 -118q-23 -37 -87 -91q33 -35 76 -59t89 -36zM597 513q-38 61 -98 91q-46 23 -130 39v-131q27 -23 57.5 -35.5t62.5 -12.5q62 0 108 49zM640 384q0 30 -6.5 56.5t-21.5 49.5q-30 -25 -62.5 -37.5t-65.5 -12.5q-58 0 -115 37v-163q32 21 64.5 33t61.5 12
q65 0 130 -58q15 41 15 83zM612 269q-25 32 -56 48.5t-63 16.5t-63 -13.5t-61 -41.5v-193q80 7 145 59q60 48 98 124zM337 86v560h-43v-287q0 -45 -21 -83q-15 -27 -95 -110q40 -38 73 -56q43 -24 86 -24zM189 292v298q-44 -45 -67.5 -102t-23.5 -120q0 -50 15.5 -95
t47.5 -84q15 24 21.5 48.5t6.5 54.5z" />
    <glyph glyph-name="oe" unicode="&#x153;" horiz-adv-x="590" 
d="M573 397q-52 -39 -96 -75q-52 -43 -94 -81v-118l87 -42l73 50l17 -19q-44 -31 -83 -60q-52 -41 -78 -61q-55 35 -113 54q-22 -12 -42 -26t-39 -32q-87 72 -203 97q21 19 27 39t6 53v284q46 13 84.5 36.5t73.5 58.5q50 -34 76 -48t51 -23q28 17 41 25q26 17 67 46z
M479 359l-100 112v-198zM262 86v321l-121 53v-322q27 -13 59 -26.5t62 -25.5z" />
    <glyph glyph-name="Scaron" unicode="&#x160;" horiz-adv-x="829" 
d="M805 311q0 -78 -48 -145q-40 -56 -113 -106q-45 -31 -132 -76l-142 60q-72 -31 -119 -46q-72 -23 -127 -23q-113 0 -129 98q-1 5 -1 15q0 51 54 79.5t122 28.5q21 0 45.5 -2t46.5 -5l27 55q-101 0 -139 9q-75 18 -103 76q-9 18 -13 34t-4 31q0 39 28 70q23 25 65 45
q0 46 24 88q19 34 59 73l108 96q49 -19 110 -40t110 -36l25 47l26 -18l-113 -197q101 -9 202 -17q131 -39 131 -194zM478 588q-36 26 -55 37q-56 34 -107 34h-12q-8 -2 -29.5 -3.5t-48.5 -21t-27 -54.5q13 -37 56 -54q36 -14 87 -14q24 0 47 2.5t50 5.5zM719 301
q0 67 -67 98q-51 24 -134 24q-30 0 -47.5 -1.5t-53.5 -6.5l-33 -65q19 2 44 4t48 2q79 0 125 -19q60 -25 60 -80q0 -41 -51 -82q-25 -20 -90 -57l96 -37q51 43 77 97t26 123zM378 409q-17 0 -34 -0.5t-34 -0.5q-65 0 -104 13q-53 18 -75 64q-26 -26 -26 -55q0 -14 5.5 -25.5
t20.5 -25.5q21 -19 57 -27.5t76 -8.5q19 0 41 2t38 4zM558 222q0 20 -19 28.5t-52 8.5q-29 0 -89 -7.5t-75 -7.5l-31 -60q50 -8 95 -21q11 -3 94 -29q36 28 45 36q32 30 32 52zM324 56q-49 22 -104 37t-102 15q-30 0 -56 -13.5t-26 -38.5t25.5 -41.5t61.5 -16.5q46 0 114 22
q52 17 87 36zM577 834q-30 -28 -64.5 -42.5t-68.5 -14.5q-35 0 -65.5 12.5t-56.5 38.5q-25 19 -25 37q0 10 9 10q10 0 30 -15q55 -31 112 -31q22 0 43 4t44 14q39 23 56 23q8 0 8 -6q0 -9 -22 -30z" />
    <glyph glyph-name="scaron" unicode="&#x161;" horiz-adv-x="458" 
d="M415 581q0 -25 -33 -75l-100 -144l103 -66v-223q-35 -12 -71 -34q-30 -18 -67 -48q-28 18 -55.5 26t-53.5 8q-51 0 -112 -28l-19 13l134 201l-106 62v187q37 17 71 42t65 56q34 -20 72 -34.5t69 -14.5l27 3q14 0 26.5 11.5t12.5 27.5q0 10 -8.5 20.5t-15.5 20.5l-5 14
q0 10 8 16t21 6q14 0 25.5 -12.5t11.5 -34.5zM303 440q-16 -2 -33.5 -4.5t-25.5 -2.5q-26 0 -51.5 7t-54.5 20v-132l61 -36zM291 89v152l-66 37l-120 -166q14 3 31.5 7t36.5 4q28 0 56 -8.5t62 -25.5zM322 666q-25 -31 -52.5 -45t-56.5 -14q-56 0 -98 53q-21 19 -21 38
q0 10 7 10q8 0 25 -15q21 -15 44.5 -23.5t46.5 -8.5q35 0 70 18q33 24 46 24q7 0 7 -6q0 -10 -18 -31z" />
    <glyph glyph-name="Ydieresis" unicode="&#x178;" horiz-adv-x="731" 
d="M712 448q0 -146 -77 -234q-84 -96 -240 -96h-197q-70 0 -114 -23q-58 -30 -58 -93q0 -48 34 -73q30 -22 80 -22h16q7 1 10 1q93 36 155.5 59t105.5 23q58 0 88.5 -28t30.5 -68q0 -22 -11.5 -38.5t-30.5 -16.5q-20 0 -32.5 15.5t-12.5 39.5q0 9 1 13q3 7 6.5 15.5
t3.5 14.5q0 14 -21 14q-4 0 -16 -2q-71 -36 -146.5 -74t-123.5 -38q-72 0 -117.5 49.5t-45.5 113.5q0 58 40 99q47 48 130 48q1 6 1 11v12q0 61 -33.5 110.5t-92.5 76.5v9q33 -3 51 -5q53 -7 74 -17v12q0 62 -30 100q-26 33 -92 62v7q24 6 48 6q18 0 36.5 -3.5t37.5 -9.5
q1 7 2 21.5t1 23.5q0 83 -33 123q-29 35 -80 35h-9v11q47 24 96 24q52 0 91.5 -28t55.5 -82q57 40 97 59q58 27 110 27q98 0 158 -94q53 -83 53 -190zM567 518q-12 69 -43 108q-35 44 -88 44q-15 0 -32.5 -4t-34.5 -11v-143q48 -36 95 -36q26 0 51.5 11t51.5 31zM575 414v47
q-3 22 -4 32q-55 -40 -112 -40q-47 0 -90 28v-144q41 28 90 28q27 0 54.5 -8.5t56.5 -25.5q3 17 4 37t1 46zM564 304q-52 40 -104 40q-47 0 -91 -33v-169q69 0 123 45t72 117zM340 142v498l-49 -24v-474h49zM477 810l-63 -63q-16 17 -27.5 39.5t-11.5 39.5l63 47zM343 810
l-63 -63q-19 20 -29 38t-10 41l63 47z" />
    <glyph glyph-name="Zcaron" unicode="&#x17d;" horiz-adv-x="656" 
d="M625 125q-58 -69 -72 -86t-44 -55q-55 25 -122.5 38t-130.5 13q-127 0 -240 -42l-9 9q43 53 77 101q27 39 66 103q17 28 65 111h-106l18 38h107q8 11 18 26q15 23 17 26h-116l16 39h127q57 69 118 133t128 123q-75 -41 -143.5 -62.5t-135.5 -21.5q-75 0 -150 28l-35 -37
l-20 16q27 31 69 82q21 26 43 53q119 -50 220 -50q92 0 213 41l7 -10q-44 -62 -88 -144q-17 -33 -74 -151h114l-18 -39h-120q-7 -13 -16 -26.5l-17 -25.5h128l-16 -38h-138q-52 -68 -127 -138q-21 -20 -142 -123q90 40 147 58q81 25 151 25q46 0 86.5 -9.5t86.5 -32.5l37 44
zM526 812q-31 -31 -64.5 -45.5t-69.5 -14.5q-73 0 -125 54q-25 19 -25 38q0 10 10 10t30 -15q27 -16 54.5 -24.5t57.5 -8.5q43 0 89 20q39 23 57 23q8 0 8 -6q0 -10 -22 -31z" />
    <glyph glyph-name="zcaron" unicode="&#x17e;" horiz-adv-x="306" 
d="M294 124q0 -77 -68 -128q-89 -50 -128 -79q-14 -9 -24.5 -26.5t-10.5 -33.5q0 -14 8.5 -25.5t24.5 -16.5q4 0 12 2q20 5 28 5q20 0 20 -16q1 -11 -8 -17t-24 -10q-35 0 -56.5 25.5t-21.5 58.5q0 19 7 36.5t18 31.5q7 7 51 46q32 28 47.5 53.5t15.5 57.5q0 19 -5 33.5
t-17 26t-29.5 16.5t-34.5 5t-36 -3t-46 -9l161 167l-91 91l-59 -45l-16 23l141 102q29 -29 58 -57q40 -35 70 -38v-7l-135 -141q64 0 103 -30q45 -34 45 -98zM256 616q-27 -30 -55.5 -44.5t-59.5 -14.5q-60 0 -105 53q-21 18 -21 38q0 10 8 10q9 0 26 -15q22 -15 47 -23.5
t50 -8.5q19 0 37 4t37 14q35 24 48 24q7 0 7 -6q0 -11 -19 -31z" />
    <glyph glyph-name="florin" unicode="&#x192;" horiz-adv-x="440" 
d="M618 672l-70 -81q-9 2 -58 22q-20 8 -29 8q-25 0 -36.5 -10.5t-23 -38.5t-20.5 -85q-13 -80 -15 -90h91l73 3l-91 -65l-53 1l-37 -2l-19 -80q-30 -128 -40 -164q-26 -94 -55 -157q-34 -74 -109 -137q-31 -26 -55 -34t-65 -8l-85 6l36 50l28 39l76 -31q43 0 63 26
q13 16 29 66l47 232l43 190h-164l104 65h75q21 93 40 128t54 69q44 42 79 62q47 27 98 27q16 0 33.5 -2t55.5 -9z" />
    <glyph glyph-name="circumflex" unicode="&#x2c6;" horiz-adv-x="339" 
d="M409 472l-47 -23l-16 134l-149 -134l-8 31l165 166h32z" />
    <glyph glyph-name="breve" unicode="&#x2d8;" horiz-adv-x="441" 
d="M504 559q-35 -37 -72 -54.5t-76 -17.5q-78 0 -136 64q-13 11 -20.5 23.5t-7.5 22.5q0 12 11 12q12 0 33 -18q29 -18 60 -28.5t63 -10.5q25 0 47.5 5t50.5 18q42 28 62 28q9 0 9 -7q0 -13 -24 -37z" />
    <glyph glyph-name="ring" unicode="&#x2da;" horiz-adv-x="299" 
d="M409 543q0 -40 -33.5 -66t-74.5 -26q-31 0 -51.5 17t-20.5 51q0 19 7 40q17 34 33.5 49t37.5 22q14 3 30 3q32 0 50 -14q23 -18 23 -62q-1 -9 -1 -14zM323 606q-20 0 -35.5 -26.5t-15.5 -56.5q0 -22 9 -36.5t29 -14.5q26 0 42.5 24t16.5 55q0 26 -11.5 42t-34.5 13z" />
    <glyph glyph-name="tilde" unicode="&#x2dc;" horiz-adv-x="441" 
d="M520 591q-22 -25 -44 -49q-33 -35 -60 -35q-26 0 -70 28q-10 8 -23 13q-19 8 -34 8q-22 0 -43 -14q-26 -18 -49 -54l-16 24q40 56 49 66q33 35 70 35q28 0 62 -22q18 -12 25 -16q19 -10 37 -10q19 0 38 9t42 32z" />
    <glyph glyph-name="endash" unicode="&#x2013;" horiz-adv-x="820" 
d="M789 176h-780v79h780v-79z" />
    <glyph glyph-name="emdash" unicode="&#x2014;" horiz-adv-x="1175" 
d="M1124 176h-1085v79h1085v-79z" />
    <glyph glyph-name="quoteleft" unicode="&#x2018;" horiz-adv-x="174" 
d="M153 553l-83 -77l-39 39q-19 19 -40 37q20 55 55 97q32 38 85 75l22 -24q-24 -24 -36.5 -41t-12.5 -32q0 -25 49 -74z" />
    <glyph glyph-name="quoteright" unicode="&#x2019;" horiz-adv-x="230" 
d="M209 658q-20 -55 -53.5 -95t-86.5 -77l-22 24q24 24 36.5 41t12.5 32q0 25 -49 74l83 77q19 -20 38.5 -39t40.5 -37z" />
    <glyph glyph-name="quotesinglbase" unicode="&#x201a;" horiz-adv-x="205" 
d="M188 60q-40 -105 -143 -169l-19 24q46 43 46 69q0 30 -46 73l83 82q17 -21 37 -41q14 -14 42 -38z" />
    <glyph glyph-name="quotedblleft" unicode="&#x201c;" horiz-adv-x="405" 
d="M354 557l-83 -82q-17 21 -37 41q-14 14 -42 38q40 105 143 169l19 -24q-46 -43 -46 -69q0 -30 46 -73zM149 547l-83 -82q-17 21 -37 41q-14 14 -42 38q40 105 143 169l19 -24q-46 -43 -46 -69q0 -30 46 -73z" />
    <glyph glyph-name="quotedblright" unicode="&#x201d;" horiz-adv-x="405" 
d="M388 655q-40 -105 -143 -169l-19 24q46 43 46 69q0 30 -46 73l83 82q17 -21 37 -41q14 -14 42 -38zM183 645q-40 -105 -143 -169l-19 24q46 43 46 69q0 30 -46 73l83 82q17 -21 37 -41q14 -14 42 -38z" />
    <glyph glyph-name="quotedblbase" unicode="&#x201e;" horiz-adv-x="405" 
d="M393 70q-40 -105 -143 -169l-19 24q46 43 46 69q0 30 -46 73l83 82q17 -21 37 -41q14 -14 42 -38zM188 60q-40 -105 -143 -169l-19 24q46 43 46 69q0 30 -46 73l83 82q17 -21 37 -41q14 -14 42 -38z" />
    <glyph glyph-name="dagger" unicode="&#x2020;" horiz-adv-x="457" 
d="M512 386l-16 -24l-173 -16l-110 -464l-71 -32l134 496l-189 -15l31 55h165l40 181l63 24l-55 -205h181z" />
    <glyph glyph-name="daggerdbl" unicode="&#x2021;" horiz-adv-x="480" 
d="M528 433l-40 -31l-126 -8l-47 -181h150l-40 -32l-118 -8l-63 -267l-71 -48l79 315l-158 -8l32 48h134l47 181l-157 -8l31 47h134l39 158l63 31l-47 -189h158z" />
    <glyph glyph-name="bullet" unicode="&#x2022;" horiz-adv-x="400" 
d="M336 321q0 -66 -41 -105q-37 -35 -92 -35t-95 35q-44 39 -44 105q0 61 39 93.5t96 32.5q55 0 96 -32.5t41 -93.5z" />
    <glyph glyph-name="ellipsis" unicode="&#x2026;" horiz-adv-x="958" 
d="M922 76l-95 -85q-34 30 -44 41q-20 21 -38 48l90 87q27 -33 41 -48q19 -20 46 -43zM550 76l-95 -85q-35 34 -42 41q-24 25 -40 48l91 87q36 -47 86 -91zM180 76l-94 -85q-33 30 -43 41q-24 24 -40 48l92 87q45 -55 85 -91z" />
    <glyph glyph-name="perthousand" unicode="&#x2030;" horiz-adv-x="1045" 
d="M674 207q0 -51 -26 -95q-31 -53 -121 -119q-74 23 -117 64q-51 49 -51 118l-2 8q0 69 49 130q39 48 108 93q65 -30 99 -60q47 -42 57 -99zM557 682l-397 -689h-61l397 689h61zM309 485q0 -66 -44 -124q-32 -43 -103 -95q-74 27 -115 67q-50 49 -50 119v10q0 71 46 130
q39 51 109 90q67 -31 99 -59q47 -41 57 -101zM613 168q0 16 -3 31t-9 31q-17 43 -52 72t-83 38q-21 -22 -33.5 -53t-12.5 -58q0 -59 41.5 -106.5t108.5 -60.5q22 22 32.5 49t10.5 57zM251 443q0 16 -2.5 27.5t-9.5 33.5q-17 42 -52.5 72.5t-82.5 40.5q-47 -53 -47 -113
q0 -58 41.5 -105.5t106.5 -59.5q46 48 46 104zM1014 207q0 -51 -26 -95q-31 -53 -121 -119q-74 23 -117 64q-51 49 -51 118l-2 8q0 69 49 130q39 48 108 93q65 -30 99 -60q47 -42 57 -99zM953 168q0 16 -3 31t-9 31q-17 43 -52 72t-83 38q-21 -22 -33.5 -53t-12.5 -58
q0 -59 41.5 -106.5t108.5 -60.5q22 22 32.5 49t10.5 57z" />
    <glyph glyph-name="guilsinglleft" unicode="&#x2039;" horiz-adv-x="236" 
d="M283 378l-126 -165l40 -197l-40 -32l-63 221l174 204z" />
    <glyph glyph-name="guilsinglright" unicode="&#x203a;" horiz-adv-x="260" 
d="M276 205l-182 -205l-15 31l134 174l-48 181l40 39z" />
    <glyph glyph-name="trademark" unicode="&#x2122;" horiz-adv-x="1000" 
d="M1047 260h-149v16q34 0 44.5 11.5t10.5 43.5v275l-166 -346l-149 346v-275q0 -55 47 -55v-16h-110v16q24 3 32 12.5t8 24.5q-1 12 -1 18v260q1 9 1 14q0 19 -10.5 28.5t-29.5 12.5v15h94l134 -322l142 322h102v-15q-18 2 -32.5 -9.5t-14.5 -45.5v-260q0 -33 6 -41.5
t41 -13.5v-16zM488 567h-16q0 49 -33 62q-22 9 -93 9v-299v-11q0 -24 9 -35q14 -17 54 -17v-16h-173v16q39 0 51 14.5t12 48.5v299q-64 0 -85 -12q-27 -16 -33 -67h-16v102h323v-94z" />
    <glyph glyph-name="fraction" unicode="&#x2215;" horiz-adv-x="343" 
d="M337 553q-68 -135 -138 -281q-75 -156 -131 -283h-62l263 564h68z" />
  </font>
</defs>
</svg>
